if (_typeface_js && _typeface_js.loadFace) _typeface_js.loadFace({"glyphs":{"S":{"x_min":78.296875,"x_max":752.046875,"ha":849,"o":"m 752 263 b 196 765 752 609 196 480 b 425 939 196 887 323 939 b 639 784 526 939 636 908 l 734 784 b 414 1023 712 977 543 1023 b 101 752 259 1023 101 927 b 502 430 101 535 343 484 b 656 255 586 402 656 355 b 419 62 656 127 530 62 b 173 261 287 62 176 106 l 78 261 b 370 -20 82 95 214 -20 b 752 263 568 -20 752 45 "},"¦":{"x_min":110.25,"x_max":191.921875,"ha":308,"o":"m 110 -242 l 191 -242 l 191 242 l 110 242 l 110 -242 m 110 451 l 191 451 l 191 937 l 110 937 l 110 451 "},"/":{"x_min":-31,"x_max":410,"ha":386,"o":"m -31 -133 l 54 -133 l 410 1002 l 321 1002 l -31 -133 "},"y":{"x_min":11,"x_max":658,"ha":694,"o":"m 11 697 l 294 0 l 190 -266 l 280 -266 l 658 697 l 569 697 l 340 113 l 110 697 l 11 697 "},"≈":{"x_min":64,"x_max":703.71875,"ha":786,"o":"m 666 590 b 534 486 628 521 592 486 b 404 533 484 486 451 508 b 249 592 366 554 315 592 b 64 462 171 592 106 543 l 103 430 b 240 535 137 486 176 535 b 370 487 287 535 328 511 b 530 427 436 450 475 427 b 703 557 616 427 668 486 l 666 590 m 666 358 b 536 253 627 290 592 253 b 404 304 484 253 449 277 b 249 361 366 323 317 361 b 64 230 172 361 106 312 l 103 198 b 240 304 137 252 175 304 b 370 255 287 304 326 280 b 530 197 436 219 475 197 b 703 324 616 197 668 255 l 666 358 "},"Ž":{"x_min":53.0625,"x_max":703.9375,"ha":772,"o":"m 703 0 l 703 83 l 156 83 l 703 919 l 703 1002 l 53 1002 l 53 919 l 599 919 l 53 83 l 53 0 l 703 0 m 563 1287 l 501 1287 l 378 1140 l 257 1287 l 193 1287 l 328 1085 l 427 1085 l 563 1287 "},"Á":{"x_min":12.078125,"x_max":897,"ha":926,"o":"m 235 354 l 451 919 l 664 354 l 235 354 m 103 0 l 206 270 l 695 270 l 800 0 l 897 0 l 504 1002 l 401 1002 l 12 0 l 103 0 m 507 1287 l 383 1088 l 443 1088 l 616 1287 l 507 1287 "},"g":{"x_min":61.25,"x_max":668.3125,"ha":772,"o":"m 579 362 b 363 77 579 226 519 77 b 149 359 213 77 149 231 b 360 640 149 487 212 640 b 579 362 507 640 579 495 m 579 592 l 577 587 b 352 716 522 667 451 716 b 61 352 144 716 61 541 b 355 1 61 161 149 1 b 577 131 443 1 537 49 l 579 131 l 579 1 b 372 -191 577 -115 479 -191 b 179 -80 285 -191 189 -163 l 91 -80 b 362 -267 91 -224 238 -267 b 517 -236 426 -267 462 -262 b 661 120 668 -163 661 -18 l 661 538 b 668 695 661 592 665 648 l 583 695 l 579 592 "},"²":{"x_min":44.921875,"x_max":428.75,"ha":463,"o":"m 428 392 l 428 459 l 153 459 b 420 833 216 529 420 698 b 238 981 420 933 336 981 b 50 816 132 981 50 919 l 115 816 b 236 914 115 867 163 914 b 347 828 302 914 347 880 b 44 449 347 726 123 516 l 44 392 l 428 392 "},"–":{"x_min":0,"x_max":680.5625,"ha":694,"o":"m 680 329 l 680 412 l 0 412 l 0 329 l 680 329 "},"ë":{"x_min":67.453125,"x_max":684.046875,"ha":772,"o":"m 684 329 b 372 717 684 547 601 717 b 67 348 169 717 67 537 b 366 -20 67 158 162 -20 b 675 222 531 -20 633 55 l 590 222 b 392 55 569 126 489 55 b 155 329 225 55 158 180 l 684 329 m 158 405 b 373 641 169 527 240 641 b 595 405 515 641 586 540 l 158 405 m 546 859 l 546 981 l 445 981 l 445 859 l 546 859 m 309 859 l 309 981 l 209 981 l 209 859 l 309 859 "},"ƒ":{"x_min":44,"x_max":631,"ha":772,"o":"m 317 565 l 203 -34 b 124 -185 191 -85 177 -168 b 58 -184 106 -190 86 -190 l 44 -258 b 106 -267 64 -264 84 -267 b 312 61 279 -267 287 -67 l 407 565 l 553 565 l 564 649 l 419 649 l 447 787 b 560 897 458 853 478 897 b 620 892 580 897 601 896 l 631 971 b 534 980 598 976 566 980 b 351 760 395 980 368 855 l 330 649 l 201 649 l 189 565 l 317 565 "},"Î":{"x_min":4.078125,"x_max":374.3125,"ha":386,"o":"m 234 0 l 234 1006 l 145 1006 l 145 0 l 234 0 m 4 1085 l 66 1085 l 189 1233 l 310 1085 l 374 1085 l 239 1287 l 140 1287 l 4 1085 "},"e":{"x_min":67.453125,"x_max":684.046875,"ha":772,"o":"m 684 329 b 372 717 684 547 601 717 b 67 348 169 717 67 537 b 366 -20 67 158 162 -20 b 675 222 531 -20 633 55 l 590 222 b 392 55 569 126 489 55 b 155 329 225 55 158 180 l 684 329 m 158 405 b 373 641 169 527 240 641 b 595 405 515 641 586 540 l 158 405 "},"Ã":{"x_min":12.078125,"x_max":897,"ha":926,"o":"m 235 354 l 451 919 l 664 354 l 235 354 m 103 0 l 206 270 l 695 270 l 800 0 l 897 0 l 504 1002 l 401 1002 l 12 0 l 103 0 m 590 1270 b 522 1224 579 1241 552 1224 b 469 1237 511 1224 489 1231 b 415 1252 449 1244 427 1251 b 267 1141 336 1264 284 1216 l 319 1141 b 383 1181 326 1169 356 1181 b 457 1167 412 1181 436 1174 b 518 1152 479 1159 499 1152 b 642 1270 587 1152 627 1207 l 590 1270 "},"J":{"x_min":17.6875,"x_max":560.78125,"ha":694,"o":"m 17 247 b 270 -20 36 101 111 -20 b 492 77 355 -20 436 8 b 560 326 556 156 560 252 l 560 1002 l 472 1002 l 472 312 b 299 62 472 191 424 62 b 112 247 193 62 122 138 l 17 247 "},"»":{"x_min":159,"x_max":618,"ha":772,"o":"m 228 99 l 372 370 l 228 641 l 160 641 l 285 370 l 159 99 l 228 99 m 473 99 l 618 370 l 473 641 l 405 641 l 530 370 l 404 99 l 473 99 "},"∆":{"x_min":43.984375,"x_max":836.15625,"ha":897,"o":"m 43 0 l 836 0 l 836 63 l 490 992 l 392 992 l 43 63 l 43 0 m 131 72 l 351 652 b 434 888 376 726 422 837 l 441 888 b 533 628 459 824 509 703 l 743 72 l 131 72 "},"©":{"x_min":32.671875,"x_max":1056.21875,"ha":1111,"o":"m 545 -20 b 1056 502 827 -20 1056 213 b 545 1023 1056 788 827 1023 b 32 502 262 1023 32 788 b 545 -20 32 213 262 -20 m 114 502 b 545 939 114 756 295 939 b 974 502 794 939 974 756 b 545 62 974 245 794 62 b 114 502 295 62 114 245 m 729 408 b 568 274 718 330 647 274 b 367 508 436 274 367 392 b 566 735 367 627 431 735 b 729 608 646 735 714 681 l 804 608 b 564 805 786 734 687 805 b 285 506 390 805 285 678 b 568 205 285 336 397 205 b 804 408 686 205 793 281 l 729 408 "},"˘":{"x_min":23.140625,"x_max":355.25,"ha":386,"o":"m 330 981 b 185 909 313 923 238 909 b 49 981 133 909 63 920 l 23 981 b 185 845 24 880 96 845 b 355 981 281 845 348 871 l 330 981 "},"≥":{"x_min":70.78125,"x_max":698.25,"ha":786,"o":"m 78 819 l 78 746 l 631 476 l 631 473 l 78 202 l 78 131 l 696 444 l 696 506 l 78 819 m 698 12 l 698 73 l 70 73 l 70 12 l 698 12 "},"ò":{"x_min":59.890625,"x_max":696.890625,"ha":772,"o":"m 608 348 b 378 55 608 219 543 55 b 148 348 213 55 148 219 b 378 641 148 477 213 641 b 608 348 543 641 608 477 m 378 717 b 59 348 160 717 59 531 b 378 -20 59 165 160 -20 b 696 348 596 -20 696 165 b 378 717 696 531 596 717 m 216 981 l 389 783 l 449 783 l 325 981 l 216 981 "},"^":{"x_min":100.75,"x_max":799,"ha":917,"o":"m 179 331 l 447 876 l 721 331 l 799 331 l 484 960 l 413 960 l 100 331 l 179 331 "},"«":{"x_min":139,"x_max":598,"ha":772,"o":"m 528 641 l 384 370 l 528 99 l 596 99 l 471 370 l 598 641 l 528 641 m 283 641 l 139 370 l 283 99 l 351 99 l 226 370 l 352 641 l 283 641 "},"D":{"x_min":123.859375,"x_max":895.609375,"ha":1003,"o":"m 212 83 l 212 919 l 351 919 b 800 501 630 927 800 796 b 411 83 800 248 687 83 l 212 83 m 123 1002 l 123 0 l 389 0 b 895 501 711 0 895 169 b 389 1002 895 833 711 1002 l 123 1002 "},"∙":{"x_min":134.75,"x_max":243.640625,"ha":386,"o":"m 243 408 l 134 408 l 134 288 l 243 288 l 243 408 "},"ł":{"x_min":6.8125,"x_max":295.359375,"ha":308,"o":"m 110 1002 l 110 622 l 6 578 l 6 531 l 110 573 l 110 0 l 191 0 l 191 606 l 295 649 l 295 697 l 191 655 l 191 1002 l 110 1002 "},"ÿ":{"x_min":11.4375,"x_max":657.96875,"ha":694,"o":"m 11 697 l 294 0 l 191 -266 l 280 -266 l 657 697 l 569 697 l 340 113 l 110 697 l 11 697 m 509 859 l 509 981 l 408 981 l 408 859 l 509 859 m 272 859 l 272 981 l 172 981 l 172 859 l 272 859 "},"Ł":{"x_min":8.171875,"x_max":718.671875,"ha":772,"o":"m 718 0 l 718 83 l 224 83 l 224 590 l 352 641 l 352 697 l 224 645 l 224 1002 l 136 1002 l 136 609 l 8 558 l 8 502 l 136 553 l 136 0 l 718 0 "},"í":{"x_min":80.3125,"x_max":313.0625,"ha":308,"o":"m 191 0 l 191 697 l 110 697 l 110 0 l 191 0 m 204 981 l 80 783 l 140 783 l 313 981 l 204 981 "},"ˆ":{"x_min":4,"x_max":374,"ha":386,"o":"m 4 779 l 66 779 l 189 927 l 310 779 l 374 779 l 239 981 l 140 981 l 4 779 "},"w":{"x_min":22,"x_max":1114,"ha":1157,"o":"m 111 697 l 22 697 l 272 0 l 355 0 l 569 601 l 572 601 l 781 0 l 859 0 l 1114 697 l 1024 697 l 826 115 l 823 115 l 622 697 l 525 697 l 318 109 l 316 109 l 111 697 "},"$":{"x_min":56.859375,"x_max":700.96875,"ha":772,"o":"m 409 429 b 605 244 496 397 605 365 b 409 62 605 130 503 69 l 409 429 m 409 -20 b 700 241 552 -20 700 61 b 409 519 700 430 551 473 l 409 901 b 589 738 491 898 588 856 l 684 738 b 409 981 675 895 543 981 l 409 1048 l 341 1048 l 341 981 b 74 715 213 981 74 862 b 341 444 74 509 270 474 l 341 62 b 152 244 236 69 144 120 l 57 244 b 341 -20 49 62 198 -16 l 341 -94 l 409 -94 l 409 -20 m 341 540 b 170 716 257 566 170 608 b 341 898 170 827 253 896 l 341 540 "},"∫":{"x_min":16.328125,"x_max":453.25,"ha":483,"o":"m 453 1156 b 381 1177 439 1166 408 1177 b 259 1124 337 1177 294 1160 b 189 835 208 1070 189 985 b 208 126 189 622 208 348 b 159 -116 208 -18 186 -80 b 95 -148 142 -137 118 -148 b 32 -131 68 -148 44 -137 l 16 -195 b 100 -219 31 -205 68 -219 b 225 -154 151 -219 198 -197 b 287 124 258 -108 287 -26 b 269 827 287 345 269 613 b 317 1078 269 962 281 1035 b 386 1110 334 1102 364 1110 b 436 1095 404 1110 426 1103 l 453 1156 "},"\\":{"x_min":-59.53125,"x_max":440,"ha":386,"o":"m 351 0 l 440 0 l 28 1002 l -59 1002 l 351 0 "},"Ì":{"x_min":27.21875,"x_max":259.96875,"ha":386,"o":"m 234 0 l 234 1006 l 145 1006 l 145 0 l 234 0 m 27 1287 l 200 1088 l 259 1088 l 136 1287 l 27 1287 "},"µ":{"x_min":108.890625,"x_max":654.703125,"ha":772,"o":"m 566 295 b 370 55 566 170 504 55 b 190 246 258 55 190 126 l 190 696 l 108 696 l 108 -266 l 190 -266 l 190 13 b 349 -21 243 -7 296 -21 b 563 105 438 -21 515 19 l 566 102 l 570 0 l 654 0 b 647 156 651 46 647 102 l 647 696 l 566 696 l 566 295 "},"Ç":{"x_min":83.03125,"x_max":843.890625,"ha":926,"o":"m 337 -223 b 491 -253 401 -242 423 -253 b 617 -162 545 -253 617 -227 b 480 -69 617 -79 548 -69 l 494 -19 b 506 -21 496 -21 502 -21 b 843 242 664 -21 815 74 l 748 242 b 506 62 724 117 615 62 b 178 501 254 62 178 295 b 506 939 178 706 254 939 b 737 767 617 939 721 889 l 833 767 b 506 1023 819 948 666 1023 b 83 501 209 1023 83 775 b 462 -16 83 237 196 5 l 431 -113 b 476 -109 446 -112 461 -109 b 541 -159 507 -109 541 -120 b 525 -203 541 -178 540 -189 b 468 -219 514 -213 480 -220 b 347 -184 426 -212 386 -199 l 337 -223 "},"’":{"x_min":110,"x_max":278.78125,"ha":386,"o":"m 168 1002 l 110 717 l 180 717 l 278 1002 l 168 1002 "},"-":{"x_min":17.6875,"x_max":360.6875,"ha":386,"o":"m 17 329 l 360 329 l 360 412 l 17 412 l 17 329 "},"Q":{"x_min":91.1875,"x_max":1004.5,"ha":1081,"o":"m 1004 0 l 1004 83 b 790 73 932 80 858 84 l 788 76 b 967 500 911 171 967 338 b 529 1023 967 813 811 1023 b 91 500 247 1023 91 813 b 529 -21 91 188 247 -21 b 630 -1 558 -21 596 -12 b 804 0 683 13 762 0 l 1004 0 m 186 500 b 529 939 186 720 284 939 b 872 500 774 939 872 720 b 529 62 872 281 774 62 b 186 500 284 62 186 281 "},"M":{"x_min":132.03125,"x_max":1154.21875,"ha":1311,"o":"m 220 0 l 220 921 l 223 921 l 598 0 l 687 0 l 1063 925 l 1065 925 l 1065 0 l 1154 0 l 1154 1002 l 1019 1002 l 642 129 l 273 1002 l 132 1002 l 132 0 l 220 0 "},"C":{"x_min":83.03125,"x_max":843.890625,"ha":926,"o":"m 833 767 b 506 1023 819 948 666 1023 b 83 501 209 1023 83 776 b 506 -20 83 223 208 -20 b 843 242 664 -20 815 74 l 748 242 b 506 62 724 118 615 62 b 178 501 254 62 178 295 b 506 939 178 706 254 939 b 737 767 617 939 721 890 l 833 767 "},"œ":{"x_min":59.59375,"x_max":1143.046875,"ha":1235,"o":"m 578 355 b 365 55 578 215 534 54 b 148 348 213 55 148 219 b 365 641 148 477 213 641 b 578 355 529 644 578 484 m 666 405 b 855 641 662 517 733 641 b 1054 405 1000 641 1054 537 l 666 405 m 1143 329 b 844 717 1143 547 1060 717 b 620 544 756 717 657 660 b 378 717 576 652 488 717 b 59 348 160 717 59 531 b 378 -20 59 165 160 -20 b 619 152 481 -20 578 37 l 621 152 b 853 -20 651 34 751 -20 b 1134 222 990 -20 1092 55 l 1049 222 b 851 55 1028 126 948 55 b 666 329 708 51 663 198 l 1143 329 "},"!":{"x_min":209.609375,"x_max":321.21875,"ha":540,"o":"m 303 237 l 321 1002 l 209 1002 l 227 237 l 303 237 m 210 119 l 210 0 l 319 0 l 319 119 l 210 119 "},"ç":{"x_min":61.78125,"x_max":628,"ha":694,"o":"m 214 -223 b 368 -253 278 -242 299 -253 b 494 -162 422 -253 494 -227 b 357 -69 494 -78 425 -69 l 370 -19 b 628 218 519 -17 606 61 l 539 218 b 353 55 532 122 459 55 b 150 350 227 55 150 190 b 353 641 150 508 227 641 b 539 483 466 641 532 590 l 628 483 b 366 718 621 632 506 718 b 61 348 163 718 61 537 b 338 -19 61 166 148 -6 l 308 -113 b 353 -109 323 -112 338 -109 b 418 -159 384 -109 418 -120 b 402 -203 418 -178 417 -189 b 344 -219 391 -213 357 -220 b 223 -184 302 -212 263 -199 l 214 -223 "},"È":{"x_min":138.828125,"x_max":743.171875,"ha":849,"o":"m 743 0 l 743 83 l 227 83 l 227 476 l 703 476 l 703 559 l 227 559 l 227 919 l 722 919 l 722 1002 l 138 1002 l 138 0 l 743 0 m 254 1287 l 427 1088 l 487 1088 l 363 1287 l 254 1287 "},"ﬁ":{"x_min":29.9375,"x_max":641.078125,"ha":772,"o":"m 552 696 l 552 0 l 634 0 l 634 696 l 552 696 m 641 1002 l 545 1002 l 545 897 l 641 897 l 641 1002 m 249 0 l 249 620 l 404 620 l 404 696 l 249 696 l 249 785 b 359 942 245 885 247 942 b 409 936 375 942 393 939 l 409 1003 b 332 1018 385 1009 357 1018 b 167 845 215 1018 167 964 l 167 696 l 29 696 l 29 620 l 167 620 l 167 0 l 249 0 "},"{":{"x_min":52,"x_max":337.828125,"ha":386,"o":"m 337 -63 l 292 -63 b 238 40 257 -55 238 -25 l 238 237 b 150 433 239 369 160 424 b 238 630 160 442 239 498 l 238 828 b 292 933 238 894 257 924 l 337 933 l 337 1002 l 269 1002 b 150 851 215 996 150 942 l 150 651 b 52 470 150 548 136 480 l 52 394 b 150 216 136 384 150 317 l 150 18 b 269 -133 150 -73 215 -127 l 337 -133 l 337 -63 "},"X":{"x_min":11,"x_max":821,"ha":849,"o":"m 409 448 l 708 0 l 821 0 l 469 516 l 810 1002 l 710 1002 l 422 580 l 144 1002 l 28 1002 l 360 516 l 11 0 l 111 0 l 409 448 "},"ô":{"x_min":59.890625,"x_max":696.890625,"ha":772,"o":"m 608 348 b 378 55 608 218 543 55 b 148 348 213 55 148 218 b 378 640 148 477 213 640 b 608 348 543 640 608 477 m 378 717 b 59 348 160 717 59 531 b 378 -21 59 164 160 -21 b 696 348 596 -21 696 164 b 378 717 696 531 596 717 m 193 779 l 255 779 l 378 927 l 499 779 l 563 779 l 428 981 l 329 981 l 193 779 "},"¼":{"x_min":144,"x_max":1006.953125,"ha":1158,"o":"m 851 0 l 921 0 l 921 134 l 1006 134 l 1006 201 l 921 201 l 921 576 l 836 576 l 563 177 l 563 134 l 851 134 l 851 0 m 887 981 l 815 981 l 247 0 l 322 0 l 887 981 m 851 201 l 658 201 l 849 497 l 851 497 l 851 201 m 352 392 l 352 960 l 285 960 b 144 870 246 923 197 890 l 144 808 b 282 894 194 830 242 858 l 282 392 l 352 392 "},"#":{"x_min":39.03125,"x_max":716.984375,"ha":772,"o":"m 491 587 l 463 397 l 277 397 l 307 587 l 491 587 m 716 670 l 582 670 l 624 960 l 544 960 l 503 670 l 319 670 l 361 960 l 281 960 l 237 670 l 75 670 l 75 587 l 226 587 l 199 397 l 39 397 l 39 313 l 187 313 l 141 0 l 220 0 l 266 313 l 451 313 l 409 0 l 489 0 l 531 313 l 681 313 l 681 397 l 544 397 l 571 587 l 716 587 l 716 670 "},"Ê":{"x_min":138.828125,"x_max":743.171875,"ha":849,"o":"m 743 0 l 743 83 l 227 83 l 227 476 l 703 476 l 703 559 l 227 559 l 227 919 l 722 919 l 722 1002 l 138 1002 l 138 0 l 743 0 m 231 1085 l 294 1085 l 416 1233 l 537 1085 l 601 1085 l 466 1287 l 367 1287 l 231 1085 "},")":{"x_min":59.890625,"x_max":274.9375,"ha":386,"o":"m 129 -133 b 274 434 196 48 274 234 b 127 1002 274 630 197 821 l 59 1002 b 179 434 132 815 179 613 b 59 -133 179 244 122 30 l 129 -133 "},"Å":{"x_min":12.25,"x_max":896.96875,"ha":926,"o":"m 235 354 l 451 919 l 664 354 l 235 354 m 103 0 l 206 270 l 695 270 l 800 0 l 896 0 l 504 1002 l 401 1002 l 12 0 l 103 0 m 334 1206 b 454 1084 334 1141 390 1084 b 574 1206 519 1084 574 1141 b 454 1328 574 1273 519 1328 b 334 1206 390 1328 334 1273 m 529 1206 b 454 1130 529 1169 491 1130 b 379 1206 416 1130 379 1169 b 454 1282 379 1246 416 1282 b 529 1206 492 1282 529 1245 "},"ø":{"x_min":44.40625,"x_max":707.265625,"ha":772,"o":"m 190 175 b 147 348 160 230 147 292 b 377 640 147 477 213 640 b 537 564 448 640 500 610 l 190 175 m 564 522 b 607 348 594 470 607 406 b 377 55 607 218 542 55 b 215 134 304 55 251 88 l 564 522 m 44 13 l 77 -21 l 158 69 b 377 -21 209 15 282 -21 b 696 348 595 -21 696 164 b 625 590 696 435 673 522 l 707 682 l 674 717 l 594 628 b 377 717 543 682 471 717 b 59 348 160 717 59 531 b 128 108 59 262 81 175 l 44 13 "},"â":{"x_min":48.84375,"x_max":583.59375,"ha":694,"o":"m 137 194 b 495 350 137 368 379 346 b 291 55 503 205 469 55 b 137 194 208 55 137 99 m 495 427 b 186 395 395 421 277 435 b 48 194 104 360 48 288 b 276 -21 48 57 149 -21 b 489 92 368 -21 459 34 l 493 102 l 496 102 l 499 0 l 583 0 b 576 156 580 46 575 102 l 576 486 b 334 717 579 646 485 717 b 78 520 203 717 99 663 l 165 520 b 333 641 176 614 247 641 b 495 491 429 641 486 604 l 495 427 m 154 779 l 217 779 l 340 927 l 461 779 l 525 779 l 390 981 l 291 981 l 154 779 "},"}":{"x_min":40.171875,"x_max":326,"ha":386,"o":"m 40 933 l 85 933 b 139 828 120 924 139 894 l 139 631 b 228 435 138 499 217 444 b 139 238 217 426 138 370 l 139 40 b 85 -63 139 -25 120 -55 l 40 -63 l 40 -133 l 108 -133 b 228 18 162 -127 228 -73 l 228 217 b 326 397 228 319 241 387 l 326 473 b 228 652 241 483 228 549 l 228 851 b 108 1002 228 942 162 996 l 40 1002 l 40 933 "},"‰":{"x_min":42.1875,"x_max":1318.921875,"ha":1389,"o":"m 123 -20 l 200 -20 l 764 981 l 692 981 l 123 -20 m 238 919 b 359 756 325 919 359 833 b 238 594 359 680 325 594 b 117 756 151 594 117 680 b 238 919 117 833 151 919 m 650 366 b 771 204 737 366 771 280 b 650 41 771 127 737 41 b 529 204 563 41 529 127 b 650 366 529 280 563 366 m 650 -20 b 846 204 781 -20 846 73 b 650 429 846 334 781 429 b 454 204 519 429 454 334 b 650 -20 454 73 519 -20 m 238 531 b 434 756 368 531 434 626 b 238 981 434 887 368 981 b 42 756 107 981 42 887 b 238 531 42 626 107 531 m 1122 -20 b 1318 204 1253 -20 1318 73 b 1122 429 1318 334 1253 429 b 926 204 992 429 926 334 b 1122 -20 926 73 992 -20 m 1122 366 b 1244 204 1210 366 1244 280 b 1122 41 1244 127 1210 41 b 1001 204 1035 41 1001 127 b 1122 366 1001 280 1035 366 "},"Ä":{"x_min":12.25,"x_max":896.96875,"ha":926,"o":"m 235 354 l 451 919 l 664 354 l 235 354 m 103 0 l 206 270 l 695 270 l 800 0 l 896 0 l 504 1002 l 401 1002 l 12 0 l 103 0 m 623 1164 l 623 1287 l 522 1287 l 522 1164 l 623 1164 m 386 1164 l 386 1287 l 285 1287 l 285 1164 l 386 1164 "},"¸":{"x_min":38.109375,"x_max":318.5,"ha":386,"o":"m 38 -223 b 191 -253 102 -242 123 -253 b 318 -162 246 -253 318 -227 b 181 -69 318 -78 249 -69 l 201 7 l 170 7 l 132 -113 b 176 -109 147 -112 161 -109 b 242 -159 208 -109 242 -120 b 225 -203 242 -178 240 -189 b 168 -219 215 -213 181 -220 b 47 -184 126 -212 87 -199 l 38 -223 "},"a":{"x_min":48.84375,"x_max":583.75,"ha":694,"o":"m 137 194 b 495 350 137 368 379 346 b 291 55 503 205 469 55 b 137 194 208 55 137 99 m 495 427 b 186 395 395 421 277 435 b 48 194 104 360 48 288 b 276 -21 48 57 149 -21 b 489 92 368 -21 459 34 l 493 102 l 496 102 l 499 0 l 583 0 b 576 156 581 46 575 102 l 576 486 b 334 717 579 646 485 717 b 78 520 204 717 99 663 l 165 520 b 333 641 176 614 247 641 b 495 491 429 641 487 605 l 495 427 "},"—":{"x_min":0,"x_max":1361.109375,"ha":1389,"o":"m 1361 329 l 1361 412 l 0 412 l 0 329 l 1361 329 "},"=":{"x_min":108.890625,"x_max":789.453125,"ha":917,"o":"m 789 524 l 108 524 l 108 441 l 789 441 l 789 524 m 789 255 l 108 255 l 108 172 l 789 172 l 789 255 "},"N":{"x_min":125.21875,"x_max":858.859375,"ha":1003,"o":"m 125 0 l 213 0 l 213 866 l 216 866 l 747 0 l 858 0 l 858 1002 l 770 1002 l 770 120 l 767 120 l 225 1002 l 125 1002 l 125 0 "},"˚":{"x_min":69.421875,"x_max":308.96875,"ha":386,"o":"m 69 901 b 189 778 69 835 125 778 b 308 901 254 778 308 835 b 189 1023 308 967 254 1023 b 69 901 125 1023 69 967 m 264 901 b 189 824 264 863 225 824 b 114 901 151 824 114 863 b 189 977 114 941 151 977 b 264 901 227 977 264 939 "},"ú":{"x_min":108.890625,"x_max":654.703125,"ha":772,"o":"m 566 295 b 370 55 566 170 504 55 b 190 247 258 55 190 126 l 190 697 l 108 697 l 108 261 b 349 -20 108 180 126 -20 b 563 105 438 -20 515 19 l 566 102 l 570 0 l 654 0 b 647 156 651 47 647 102 l 647 697 l 566 697 l 566 295 m 431 981 l 307 783 l 367 783 l 540 981 l 431 981 "},"⁄":{"x_min":-206,"x_max":434,"ha":232,"o":"m 434 981 l 361 981 l -206 0 l -131 0 l 434 981 "},"2":{"x_min":68.0625,"x_max":660.140625,"ha":772,"o":"m 660 0 l 660 83 l 174 83 b 647 733 319 226 647 508 b 366 981 647 899 517 981 b 77 706 202 981 77 876 l 172 706 b 363 898 172 819 250 898 b 552 727 465 898 552 840 b 68 94 552 555 190 206 l 68 0 l 660 0 "},"ü":{"x_min":108.890625,"x_max":654.703125,"ha":772,"o":"m 566 295 b 370 55 566 170 504 55 b 190 247 258 55 190 126 l 190 697 l 108 697 l 108 261 b 349 -20 108 180 126 -20 b 563 105 438 -20 515 19 l 566 102 l 570 0 l 654 0 b 647 156 651 47 647 102 l 647 697 l 566 697 l 566 295 m 547 859 l 547 981 l 446 981 l 446 859 l 547 859 m 310 859 l 310 981 l 209 981 l 209 859 l 310 859 "},"¯":{"x_min":23.140625,"x_max":356.609375,"ha":386,"o":"m 356 898 l 356 981 l 23 981 l 23 898 l 356 898 "},"Z":{"x_min":53.0625,"x_max":703.9375,"ha":772,"o":"m 703 0 l 703 83 l 156 83 l 703 919 l 703 1002 l 53 1002 l 53 919 l 599 919 l 53 83 l 53 0 l 703 0 "},"u":{"x_min":108.890625,"x_max":654.703125,"ha":772,"o":"m 566 295 b 370 55 566 170 504 55 b 190 247 258 55 190 126 l 190 697 l 108 697 l 108 261 b 349 -20 108 180 126 -20 b 563 105 438 -20 515 19 l 566 102 l 570 0 l 654 0 b 647 156 651 47 647 102 l 647 697 l 566 697 l 566 295 "},"˜":{"x_min":3,"x_max":377.3125,"ha":386,"o":"m 325 964 b 257 919 314 935 287 919 b 204 931 246 919 224 926 b 150 946 184 938 162 945 b 3 835 71 959 19 910 l 54 835 b 118 876 61 863 91 876 b 192 862 147 876 171 869 b 253 846 213 853 234 846 b 377 964 322 846 362 902 l 325 964 "},"Ó":{"x_min":91.1875,"x_max":967.75,"ha":1081,"o":"m 186 501 b 529 939 186 720 284 939 b 872 501 774 939 872 720 b 529 62 872 281 774 62 b 186 501 284 62 186 281 m 967 501 b 529 1023 967 813 811 1023 b 91 501 247 1023 91 813 b 529 -20 91 188 247 -20 b 967 501 811 -20 967 188 m 582 1287 l 458 1088 l 518 1088 l 691 1287 l 582 1287 "},"k":{"x_min":117.0625,"x_max":661.5,"ha":694,"o":"m 198 1002 l 117 1002 l 117 0 l 198 0 l 198 377 l 558 0 l 661 0 l 288 395 l 634 697 l 529 697 l 198 412 l 198 1002 "},"ˇ":{"x_min":4,"x_max":374,"ha":386,"o":"m 374 981 l 311 981 l 189 834 l 67 981 l 4 981 l 138 779 l 237 779 l 374 981 "},"Ù":{"x_min":132.03125,"x_max":850.703125,"ha":1003,"o":"m 132 1002 l 132 352 b 491 -20 134 137 253 -20 b 850 352 729 -20 847 137 l 850 1002 l 762 1002 l 762 354 b 491 62 755 172 653 62 b 220 354 329 62 227 172 l 220 1002 l 132 1002 m 329 1287 l 502 1088 l 562 1088 l 438 1287 l 329 1287 "},"Ÿ":{"x_min":10.890625,"x_max":820.75,"ha":849,"o":"m 372 0 l 461 0 l 461 435 l 820 1002 l 725 1002 l 424 517 l 123 1002 l 10 1002 l 372 433 l 372 0 m 585 1164 l 585 1287 l 484 1287 l 484 1164 l 585 1164 m 348 1164 l 348 1287 l 247 1287 l 247 1164 l 348 1164 "},"€":{"x_min":36.96875,"x_max":717.53125,"ha":772,"o":"m 60 459 l 36 381 l 125 381 b 477 -20 148 162 254 -20 b 683 65 554 -20 627 8 l 683 180 b 476 62 627 109 562 62 b 220 381 306 62 238 219 l 573 381 l 596 459 l 215 459 l 215 480 b 216 529 215 497 215 512 l 618 529 l 641 606 l 224 606 b 476 898 246 755 316 898 b 680 742 565 898 648 849 l 717 865 b 477 981 657 948 577 981 b 129 606 265 981 155 808 l 62 606 l 39 529 l 121 529 b 120 480 120 512 120 497 l 120 459 l 60 459 "},"¢":{"x_min":94.78125,"x_max":661,"ha":772,"o":"m 277 98 b 183 349 217 148 183 244 b 386 640 183 507 260 640 b 425 638 399 640 411 639 l 277 98 m 445 713 b 399 717 432 715 416 717 b 94 348 196 717 94 536 b 254 15 94 208 146 76 l 198 -184 l 259 -184 l 308 -8 b 394 -20 332 -16 362 -20 b 661 218 549 -20 639 58 l 572 218 b 386 55 565 122 492 55 b 328 66 365 55 346 59 l 481 624 b 572 482 537 602 568 554 l 661 482 b 501 700 655 592 591 668 l 553 886 l 493 886 l 445 713 "},"Ω":{"x_min":70.78125,"x_max":913.3125,"ha":1006,"o":"m 277 72 l 70 72 l 70 0 l 390 0 l 390 54 b 175 502 283 123 175 294 b 495 908 175 726 300 908 b 807 505 702 908 807 690 b 593 54 807 283 702 126 l 593 0 l 913 0 l 913 72 l 703 72 l 703 76 b 894 520 797 155 894 313 b 496 981 894 767 736 981 b 89 515 268 981 89 792 b 277 76 89 317 178 165 l 277 72 "},"ß":{"x_min":118.421875,"x_max":775.828125,"ha":849,"o":"m 200 677 b 387 946 201 799 238 946 b 553 810 468 946 553 903 b 393 548 553 715 393 667 b 687 209 393 366 687 369 b 539 55 687 105 628 55 b 409 195 461 55 406 111 l 321 195 b 541 -20 326 61 411 -20 b 775 213 669 -20 775 65 b 481 558 775 429 481 422 b 642 808 481 626 642 698 b 397 1023 642 948 524 1023 b 118 706 204 1023 119 894 l 118 0 l 200 0 l 200 677 "},"é":{"x_min":67.453125,"x_max":684.046875,"ha":772,"o":"m 684 329 b 372 717 684 547 601 717 b 67 348 169 717 67 537 b 366 -20 67 158 162 -20 b 675 222 531 -20 633 55 l 590 222 b 392 55 569 126 489 55 b 155 329 225 55 158 180 l 684 329 m 158 405 b 373 641 169 527 240 641 b 595 405 515 641 586 540 l 158 405 m 430 981 l 307 783 l 366 783 l 539 981 l 430 981 "},"s":{"x_min":62.609375,"x_max":607.0625,"ha":694,"o":"m 85 523 b 302 336 85 394 194 362 b 518 194 411 311 518 294 b 340 55 518 97 427 55 b 151 190 247 55 157 86 l 62 190 b 319 -20 65 36 201 -20 b 607 206 464 -20 607 49 b 491 369 607 281 562 344 b 174 529 306 435 174 426 b 328 641 174 610 251 641 b 496 524 412 641 488 612 l 585 524 b 336 717 574 672 465 717 b 85 523 216 717 85 667 "},"B":{"x_min":136.109375,"x_max":803.0625,"ha":926,"o":"m 224 477 l 387 477 b 707 280 573 477 707 451 b 441 83 707 126 609 80 l 224 83 l 224 477 m 224 560 l 224 919 l 434 919 b 666 742 549 917 666 888 b 438 560 666 606 552 560 l 224 560 m 510 0 b 803 267 724 0 803 136 b 579 522 803 410 713 499 l 579 524 b 762 751 683 549 762 640 b 488 1001 762 910 634 1001 l 136 1002 l 136 0 l 510 0 "},"…":{"x_min":172.859375,"x_max":1188.25,"ha":1389,"o":"m 172 119 l 172 0 l 281 0 l 281 119 l 172 119 m 626 119 l 626 0 l 735 0 l 735 119 l 626 119 m 1079 119 l 1079 0 l 1188 0 l 1188 119 l 1079 119 "},"?":{"x_min":142.03125,"x_max":578.953125,"ha":694,"o":"m 318 234 l 318 331 b 438 520 312 412 342 417 b 578 774 514 595 578 658 b 291 1023 578 944 445 1023 b 142 1003 241 1023 191 1019 l 142 919 b 269 939 182 931 226 939 b 490 771 381 939 490 902 b 237 384 490 597 241 516 l 237 234 l 318 234 m 223 119 l 223 0 l 332 0 l 332 119 l 223 119 "},"H":{"x_min":134.75,"x_max":847.96875,"ha":1003,"o":"m 223 0 l 223 479 l 759 479 l 759 0 l 847 0 l 847 1002 l 759 1002 l 759 562 l 223 562 l 223 1002 l 134 1002 l 134 0 l 223 0 "},"î":{"x_min":-34.03125,"x_max":336.1875,"ha":308,"o":"m 191 0 l 191 696 l 110 696 l 110 0 l 191 0 m -34 779 l 28 779 l 151 927 l 272 779 l 336 779 l 201 981 l 102 981 l -34 779 "},"c":{"x_min":61.78125,"x_max":628,"ha":694,"o":"m 628 483 b 366 717 621 631 506 717 b 61 348 163 717 61 537 b 361 -20 61 158 157 -20 b 628 217 516 -20 606 58 l 539 217 b 353 55 532 122 459 55 b 150 349 227 55 150 190 b 353 641 150 508 227 641 b 539 483 466 641 532 590 l 628 483 "},"¶":{"x_min":89.828125,"x_max":688.71875,"ha":903,"o":"m 351 -202 l 439 -202 l 439 919 l 600 919 l 600 -202 l 688 -202 l 688 1002 l 393 1002 b 89 730 202 1002 89 905 b 351 466 89 587 212 465 l 351 -202 "},"−":{"x_min":108.890625,"x_max":789.453125,"ha":917,"o":"m 108 306 l 789 306 l 789 390 l 108 390 l 108 306 "},"≠":{"x_min":71.03125,"x_max":699.96875,"ha":786,"o":"m 543 694 l 495 717 l 422 554 l 71 554 l 71 494 l 399 494 l 305 287 l 71 287 l 71 229 l 279 229 l 215 86 l 261 64 l 336 229 l 699 229 l 699 287 l 361 287 l 454 494 l 699 494 l 699 554 l 479 554 l 543 694 "},"•":{"x_min":95.28125,"x_max":585.28125,"ha":694,"o":"m 585 501 b 338 751 585 640 475 751 b 95 501 205 751 95 640 b 338 251 95 365 205 251 b 585 501 475 251 585 365 "},"¥":{"x_min":1.359375,"x_max":755.421875,"ha":772,"o":"m 424 0 l 424 188 l 696 188 l 696 272 l 424 272 l 424 355 l 696 355 l 696 438 l 426 438 l 755 960 l 660 960 l 387 517 l 114 960 l 1 960 l 333 438 l 59 438 l 59 355 l 336 355 l 336 272 l 59 272 l 59 188 l 336 188 l 336 0 l 424 0 "},"(":{"x_min":103.4375,"x_max":318.5,"ha":386,"o":"m 318 -133 b 198 434 255 30 198 244 b 318 1002 198 613 246 815 l 250 1002 b 103 434 181 821 103 630 b 249 -133 103 234 182 48 l 318 -133 "},"U":{"x_min":132.03125,"x_max":850.703125,"ha":1003,"o":"m 132 1002 l 132 352 b 491 -20 134 137 253 -20 b 850 352 729 -20 847 137 l 850 1002 l 762 1002 l 762 354 b 491 62 755 172 653 62 b 220 354 329 62 227 172 l 220 1002 l 132 1002 "},"◊":{"x_min":76,"x_max":695,"ha":788,"o":"m 695 481 l 421 1027 l 350 1027 l 76 481 l 349 -62 l 418 -62 l 695 481 m 614 480 l 412 79 b 387 11 403 61 392 29 l 383 11 b 358 80 379 27 371 52 l 154 484 l 356 881 b 382 951 368 906 376 931 l 386 951 b 412 881 391 933 401 903 l 614 480 "},"Ñ":{"x_min":125.21875,"x_max":858.859375,"ha":1003,"o":"m 125 0 l 213 0 l 213 866 l 216 866 l 747 0 l 858 0 l 858 1002 l 770 1002 l 770 120 l 767 120 l 225 1002 l 125 1002 l 125 0 m 627 1270 b 559 1224 616 1241 589 1224 b 506 1237 548 1224 526 1231 b 451 1252 485 1244 464 1251 b 304 1141 372 1264 321 1216 l 356 1141 b 420 1181 363 1169 393 1181 b 494 1167 449 1181 473 1174 b 555 1152 515 1159 536 1152 b 679 1270 624 1152 664 1207 l 627 1270 "},"F":{"x_min":129.3125,"x_max":684.640625,"ha":772,"o":"m 217 0 l 217 481 l 668 481 l 668 565 l 217 565 l 217 919 l 684 919 l 684 1002 l 129 1002 l 129 0 l 217 0 "},"­":{"x_min":17.6875,"x_max":360.6875,"ha":386,"o":"m 17 329 l 360 329 l 360 412 l 17 412 l 17 329 "},":":{"x_min":134.75,"x_max":243.640625,"ha":386,"o":"m 134 697 l 134 577 l 243 577 l 243 697 l 134 697 m 134 119 l 134 0 l 243 0 l 243 119 l 134 119 "},"Û":{"x_min":132.03125,"x_max":850.703125,"ha":1003,"o":"m 132 1002 l 132 352 b 491 -20 134 137 253 -20 b 850 352 729 -20 847 137 l 850 1002 l 762 1002 l 762 354 b 491 62 755 172 653 62 b 220 354 329 62 227 172 l 220 1002 l 132 1002 m 306 1085 l 368 1085 l 491 1233 l 612 1085 l 676 1085 l 541 1287 l 442 1287 l 306 1085 "},"*":{"x_min":142.046875,"x_max":615.953125,"ha":772,"o":"m 287 1002 l 215 961 l 339 786 l 142 803 l 142 722 l 338 736 l 219 559 l 287 518 l 380 713 l 468 521 l 539 559 l 422 738 l 615 722 l 615 803 l 421 786 l 541 963 l 471 1002 l 380 813 l 287 1002 "},"†":{"x_min":103.4375,"x_max":653.328125,"ha":772,"o":"m 337 676 l 337 0 l 419 0 l 419 676 l 653 676 l 653 752 l 419 752 l 419 1002 l 337 1002 l 337 752 l 103 752 l 103 676 l 337 676 "},"∕":{"x_min":-206,"x_max":434,"ha":232,"o":"m 434 981 l 361 981 l -206 0 l -131 0 l 434 981 "},"°":{"x_min":68.046875,"x_max":476.390625,"ha":556,"o":"m 476 773 b 272 981 476 887 383 981 b 68 773 159 981 66 887 b 272 565 68 658 159 565 b 476 773 383 565 476 658 m 129 773 b 270 919 127 856 189 919 b 415 773 353 919 415 856 b 272 627 415 688 353 627 b 129 773 189 627 129 688 "},"V":{"x_min":8,"x_max":823,"ha":849,"o":"m 104 1002 l 8 1002 l 367 0 l 467 0 l 823 1002 l 734 1002 l 422 90 l 420 90 l 104 1002 "},"å":{"x_min":48.84375,"x_max":583.75,"ha":694,"o":"m 137 194 b 495 350 137 368 379 346 b 291 55 503 205 469 55 b 137 194 208 55 137 99 m 495 427 b 186 395 395 421 277 435 b 48 194 104 360 48 288 b 276 -21 48 57 149 -21 b 489 92 368 -21 459 34 l 493 102 l 496 102 l 499 0 l 583 0 b 576 156 581 46 575 102 l 576 486 b 334 717 579 646 485 717 b 78 520 204 717 99 663 l 165 520 b 333 641 176 614 247 641 b 495 491 429 641 487 605 l 495 427 m 220 900 b 340 778 220 835 276 778 b 459 900 405 778 459 835 b 340 1022 459 967 405 1022 b 220 900 276 1022 220 967 m 414 900 b 340 824 414 863 376 824 b 265 900 302 824 265 863 b 340 977 265 941 302 977 b 414 900 378 977 414 939 "}," ":{"x_min":0,"x_max":0,"ha":386},"0":{"x_min":65.328125,"x_max":691.453125,"ha":772,"o":"m 378 898 b 596 480 578 898 596 623 b 378 62 596 337 578 62 b 160 480 178 62 160 337 b 378 898 160 623 178 898 m 378 981 b 65 480 121 981 65 724 b 378 -20 65 236 121 -20 b 691 480 635 -20 691 236 b 378 981 691 724 635 981 "},"”":{"x_min":176,"x_max":595.09375,"ha":772,"o":"m 484 1002 l 426 717 l 497 717 l 595 1002 l 484 1002 m 234 1002 l 176 717 l 246 717 l 344 1002 l 234 1002 "},"¾":{"x_min":28.78125,"x_max":1006.953125,"ha":1158,"o":"m 851 0 l 921 0 l 921 134 l 1006 134 l 1006 201 l 921 201 l 921 576 l 836 576 l 563 177 l 563 134 l 851 134 l 851 0 m 887 981 l 815 981 l 247 0 l 322 0 l 887 981 m 851 201 l 658 201 l 849 497 l 851 497 l 851 201 m 198 660 b 366 555 283 673 366 642 b 228 451 366 488 310 451 b 102 547 158 451 103 491 l 28 547 b 230 384 31 437 122 384 b 439 548 332 384 439 440 b 305 692 439 626 382 678 l 305 695 b 430 826 373 709 430 755 b 224 981 430 937 328 981 b 36 828 129 981 36 926 l 110 828 b 232 914 118 878 155 914 b 356 828 305 914 356 878 b 198 727 356 746 277 719 l 198 660 "},"@":{"x_min":55.0625,"x_max":1026.90625,"ha":1111,"o":"m 350 402 b 585 728 350 527 441 728 b 678 630 640 728 678 684 b 455 272 678 506 579 273 b 350 402 387 272 350 335 m 734 721 b 583 812 707 781 645 812 b 248 395 383 812 248 580 b 434 188 248 281 319 188 b 596 258 491 188 555 215 b 712 185 611 208 664 185 b 1026 588 856 185 1026 370 b 561 1023 1026 839 820 1023 b 55 505 286 1023 55 791 b 566 -20 55 215 276 -20 b 1003 235 743 -20 919 76 l 924 235 b 566 48 843 116 705 48 b 136 495 323 48 136 247 b 564 953 136 745 313 953 b 945 592 768 953 945 816 b 731 262 945 445 843 262 b 708 369 677 262 687 308 l 844 785 l 754 785 l 734 721 "},"ö":{"x_min":59.890625,"x_max":696.890625,"ha":772,"o":"m 608 348 b 378 55 608 219 543 55 b 148 348 213 55 148 219 b 378 641 148 477 213 641 b 608 348 543 641 608 477 m 378 717 b 59 348 160 717 59 531 b 378 -20 59 165 160 -20 b 696 348 596 -20 696 165 b 378 717 696 531 596 717 m 547 859 l 547 981 l 446 981 l 446 859 l 547 859 m 310 859 l 310 981 l 209 981 l 209 859 l 310 859 "},"i":{"x_min":103.4375,"x_max":198.71875,"ha":308,"o":"m 110 697 l 110 0 l 191 0 l 191 697 l 110 697 m 198 1002 l 103 1002 l 103 898 l 198 898 l 198 1002 "},"≤":{"x_min":70.78125,"x_max":699.609375,"ha":786,"o":"m 695 131 l 695 202 l 142 474 l 142 477 l 695 746 l 695 819 l 78 506 l 78 444 l 695 131 m 699 12 l 699 73 l 70 73 l 70 12 l 699 12 "},"Õ":{"x_min":91.1875,"x_max":967.75,"ha":1081,"o":"m 186 501 b 529 939 186 720 284 939 b 872 501 774 939 872 720 b 529 62 872 281 774 62 b 186 501 284 62 186 281 m 967 501 b 529 1023 967 813 811 1023 b 91 501 247 1023 91 813 b 529 -20 91 188 247 -20 b 967 501 811 -20 967 188 m 665 1270 b 597 1224 654 1241 627 1224 b 544 1237 586 1224 564 1231 b 490 1252 524 1244 502 1251 b 343 1141 411 1264 359 1216 l 394 1141 b 458 1181 401 1169 431 1181 b 532 1167 487 1181 511 1174 b 593 1152 553 1159 574 1152 b 717 1270 662 1152 702 1207 l 665 1270 "},"þ":{"x_min":95.28125,"x_max":694.171875,"ha":772,"o":"m 176 365 b 397 641 176 506 238 641 b 605 361 552 641 605 494 b 409 55 605 231 566 55 b 176 365 231 55 176 206 m 176 108 l 179 108 b 417 -20 235 25 318 -20 b 694 351 616 -20 694 176 b 413 717 694 531 616 717 b 179 591 322 717 227 673 l 176 594 l 176 1002 l 95 1002 l 95 -266 l 176 -266 l 176 108 "},"]":{"x_min":76.21875,"x_max":262.6875,"ha":386,"o":"m 76 1002 l 76 933 l 174 933 l 174 -63 l 76 -63 l 76 -133 l 262 -133 l 262 1002 l 76 1002 "},"m":{"x_min":100.71875,"x_max":1103.859375,"ha":1235,"o":"m 185 697 l 100 697 b 107 540 103 649 107 594 l 107 0 l 189 0 l 189 401 b 385 641 189 526 250 641 b 564 449 496 641 564 570 l 564 0 l 646 0 l 646 401 b 842 641 646 526 707 641 b 1022 449 954 641 1022 570 l 1022 0 l 1103 0 l 1103 435 b 862 717 1103 516 1086 717 b 627 565 756 717 677 647 b 405 717 597 656 513 717 b 191 591 317 717 239 677 l 189 594 l 185 697 "},"8":{"x_min":58.515625,"x_max":698.25,"ha":772,"o":"m 264 498 b 58 261 141 472 57 384 b 378 -20 58 66 220 -20 b 698 261 536 -20 698 66 b 495 499 698 388 620 466 l 495 501 b 684 723 602 526 684 606 b 378 981 684 901 529 981 b 72 723 227 981 72 901 b 264 501 72 609 153 512 l 264 498 m 160 723 b 378 905 160 852 273 905 b 596 723 483 905 596 852 b 378 542 596 603 503 542 b 160 723 253 542 160 603 m 153 261 b 378 459 153 398 261 459 b 602 261 495 459 602 398 b 378 62 602 123 495 62 b 153 261 261 62 153 123 "},"ž":{"x_min":53.953125,"x_max":549.046875,"ha":617,"o":"m 53 0 l 549 0 l 549 75 l 153 75 l 549 620 l 549 696 l 53 696 l 53 620 l 452 620 l 53 75 l 53 0 m 486 981 l 423 981 l 301 834 l 180 981 l 116 981 l 251 779 l 350 779 l 486 981 "},"R":{"x_min":140.1875,"x_max":820.75,"ha":926,"o":"m 228 560 l 228 919 l 427 919 b 698 740 521 919 698 933 b 417 560 698 569 543 560 l 228 560 m 228 477 l 472 477 b 684 208 650 477 664 437 b 718 0 690 137 695 66 l 820 0 b 769 298 781 61 786 136 b 604 522 756 415 729 501 l 604 524 b 793 740 718 554 793 631 b 692 949 793 835 760 908 b 461 1002 617 996 547 1002 l 140 1002 l 140 0 l 228 0 l 228 477 "},"á":{"x_min":48.84375,"x_max":583.75,"ha":694,"o":"m 137 194 b 495 350 137 368 379 346 b 291 55 503 205 469 55 b 137 194 208 55 137 99 m 495 427 b 186 395 395 421 277 435 b 48 194 104 360 48 288 b 276 -21 48 57 149 -21 b 489 92 368 -21 459 34 l 493 102 l 496 102 l 499 0 l 583 0 b 576 156 581 46 575 102 l 576 486 b 334 717 579 646 485 717 b 78 520 204 717 99 663 l 165 520 b 333 641 176 614 247 641 b 495 491 429 641 487 605 l 495 427 m 393 981 l 269 782 l 329 782 l 502 981 l 393 981 "},"×":{"x_min":109,"x_max":790,"ha":917,"o":"m 450 299 l 739 8 l 790 58 l 501 351 l 790 644 l 739 697 l 450 402 l 159 697 l 109 644 l 400 351 l 109 58 l 159 8 l 450 299 "},"o":{"x_min":59.890625,"x_max":696.890625,"ha":772,"o":"m 608 348 b 378 55 608 219 543 55 b 148 348 213 55 148 219 b 378 641 148 477 213 641 b 608 348 543 641 608 477 m 378 717 b 59 348 160 717 59 531 b 378 -20 59 165 160 -20 b 696 348 596 -20 696 165 b 378 717 696 531 596 717 "},"5":{"x_min":84.390625,"x_max":691.453125,"ha":772,"o":"m 103 404 l 194 404 b 385 549 213 494 295 549 b 596 316 526 549 596 455 b 379 62 596 177 526 62 b 179 236 272 62 185 120 l 84 236 b 389 -20 89 54 230 -20 b 691 312 575 -20 691 127 b 404 633 691 484 581 633 b 197 531 319 633 250 594 l 194 534 l 209 877 l 643 877 l 643 960 l 125 960 l 103 404 "},"õ":{"x_min":59.890625,"x_max":696.890625,"ha":772,"o":"m 608 348 b 378 55 608 219 543 55 b 148 348 213 55 148 219 b 378 641 148 477 213 641 b 608 348 543 641 608 477 m 378 717 b 59 348 160 717 59 531 b 378 -20 59 165 160 -20 b 696 348 596 -20 696 165 b 378 717 696 531 596 717 m 514 964 b 446 919 503 935 476 919 b 393 931 435 919 413 926 b 338 946 372 938 351 945 b 191 835 259 959 208 910 l 243 835 b 307 876 250 863 280 876 b 381 862 336 876 360 869 b 442 846 402 853 423 846 b 566 964 511 846 551 902 l 514 964 "},"7":{"x_min":68.9375,"x_max":669.046875,"ha":772,"o":"m 669 960 l 68 960 l 68 877 l 576 877 l 199 0 l 303 0 l 669 880 l 669 960 "},"K":{"x_min":144.28125,"x_max":824.828125,"ha":849,"o":"m 231 0 l 232 523 l 703 0 l 824 0 l 330 549 l 784 1002 l 672 1002 l 232 560 l 231 1002 l 144 1002 l 144 0 l 231 0 "},",":{"x_min":80,"x_max":248.78125,"ha":386,"o":"m 138 112 l 80 -172 l 150 -172 l 248 112 l 138 112 "},"d":{"x_min":62.609375,"x_max":668.3125,"ha":772,"o":"m 577 365 b 344 55 577 206 522 55 b 151 361 187 55 151 231 b 356 641 151 494 201 641 b 577 365 515 641 577 506 m 583 0 l 668 0 b 661 156 665 47 661 102 l 661 1002 l 579 1002 l 579 594 l 577 591 b 343 717 529 673 434 717 b 62 351 140 717 62 531 b 343 -20 62 176 140 -20 b 577 108 438 -20 521 25 l 579 102 l 583 0 "},"¨":{"x_min":20.421875,"x_max":357.96875,"ha":386,"o":"m 357 859 l 357 981 l 257 981 l 257 859 l 357 859 m 121 859 l 121 981 l 20 981 l 20 859 l 121 859 "},"Ô":{"x_min":91.1875,"x_max":967.75,"ha":1081,"o":"m 186 501 b 529 940 186 720 284 940 b 872 501 774 940 872 720 b 529 62 872 281 774 62 b 186 501 284 62 186 281 m 967 501 b 529 1023 967 813 811 1023 b 91 501 247 1023 91 813 b 529 -20 91 188 247 -20 b 967 501 811 -20 967 188 m 344 1085 l 406 1085 l 529 1233 l 650 1085 l 714 1085 l 579 1287 l 480 1287 l 344 1085 "},"E":{"x_min":138.828125,"x_max":743.171875,"ha":849,"o":"m 743 0 l 743 83 l 227 83 l 227 476 l 703 476 l 703 559 l 227 559 l 227 919 l 722 919 l 722 1002 l 138 1002 l 138 0 l 743 0 "},"Y":{"x_min":10.890625,"x_max":820.75,"ha":849,"o":"m 372 0 l 461 0 l 461 435 l 820 1002 l 725 1002 l 424 517 l 123 1002 l 10 1002 l 372 433 l 372 0 "},"\"":{"x_min":78.9375,"x_max":299.4375,"ha":386,"o":"m 78 688 l 149 688 l 149 1002 l 78 1002 l 78 688 m 228 688 l 299 688 l 299 1002 l 228 1002 l 228 688 "},"‹":{"x_min":79,"x_max":293,"ha":386,"o":"m 223 641 l 79 370 l 223 99 l 291 99 l 166 370 l 293 641 l 223 641 "},"˙":{"x_min":138.828125,"x_max":239.5625,"ha":386,"o":"m 239 859 l 239 981 l 138 981 l 138 859 l 239 859 "},"ê":{"x_min":67.453125,"x_max":684.046875,"ha":772,"o":"m 684 328 b 372 717 684 546 601 717 b 67 348 169 717 67 536 b 366 -21 67 157 162 -21 b 675 221 531 -21 633 55 l 590 221 b 392 55 569 125 489 55 b 155 328 225 55 158 180 l 684 328 m 158 404 b 373 640 169 527 240 640 b 595 404 515 640 586 539 l 158 404 m 192 779 l 255 779 l 377 927 l 498 779 l 562 779 l 428 981 l 328 981 l 192 779 "},"Ï":{"x_min":20.421875,"x_max":357.96875,"ha":386,"o":"m 234 0 l 234 1006 l 145 1006 l 145 0 l 234 0 m 357 1164 l 357 1287 l 257 1287 l 257 1164 l 357 1164 m 121 1164 l 121 1287 l 20 1287 l 20 1164 l 121 1164 "},"„":{"x_min":173,"x_max":592.09375,"ha":772,"o":"m 481 112 l 423 -172 l 494 -172 l 592 112 l 481 112 m 231 112 l 173 -172 l 243 -172 l 341 112 l 231 112 "},"Â":{"x_min":12.078125,"x_max":897,"ha":926,"o":"m 235 354 l 451 919 l 664 354 l 235 354 m 103 0 l 206 270 l 695 270 l 800 0 l 897 0 l 504 1002 l 401 1002 l 12 0 l 103 0 m 269 1085 l 331 1085 l 454 1233 l 575 1085 l 639 1085 l 504 1287 l 405 1287 l 269 1085 "},"Í":{"x_min":118.421875,"x_max":351.171875,"ha":386,"o":"m 234 0 l 234 1006 l 145 1006 l 145 0 l 234 0 m 242 1287 l 118 1088 l 178 1088 l 351 1287 l 242 1287 "},"´":{"x_min":118,"x_max":350.75,"ha":386,"o":"m 241 981 l 118 783 l 177 783 l 350 981 l 241 981 "},"ì":{"x_min":-10.890625,"x_max":221.859375,"ha":308,"o":"m 191 0 l 191 697 l 110 697 l 110 0 l 191 0 m -10 981 l 161 783 l 221 783 l 98 981 l -10 981 "},"±":{"x_min":108.890625,"x_max":789.453125,"ha":917,"o":"m 408 458 l 108 458 l 108 374 l 408 374 l 408 138 l 490 138 l 490 374 l 789 374 l 789 458 l 490 458 l 490 697 l 408 697 l 408 458 m 108 0 l 789 0 l 789 83 l 108 83 l 108 0 "},"Ú":{"x_min":132.03125,"x_max":850.703125,"ha":1003,"o":"m 132 1002 l 132 352 b 491 -20 134 137 253 -20 b 850 352 729 -20 847 137 l 850 1002 l 762 1002 l 762 354 b 491 62 755 172 653 62 b 220 354 329 62 227 172 l 220 1002 l 132 1002 m 544 1287 l 420 1088 l 480 1088 l 653 1287 l 544 1287 "},"|":{"x_min":110.25,"x_max":191.921875,"ha":308,"o":"m 110 -347 l 191 -347 l 191 1041 l 110 1041 l 110 -347 "},"§":{"x_min":151.078125,"x_max":604.328125,"ha":772,"o":"m 353 641 b 507 523 402 612 507 597 b 377 392 507 451 430 423 b 239 508 329 413 239 441 b 353 641 239 583 299 606 m 551 998 b 408 1024 504 1010 455 1024 b 168 835 291 1024 168 976 b 296 667 168 749 228 705 b 151 499 231 638 151 581 b 515 192 151 284 515 342 b 336 56 515 91 419 56 b 167 90 274 56 223 66 l 167 11 b 343 -19 221 -9 284 -19 b 604 194 472 -19 604 44 b 453 370 604 291 534 338 b 596 540 518 401 596 458 b 257 840 596 716 257 695 b 416 948 257 926 348 948 b 551 921 449 948 519 935 l 551 998 "},"Ý":{"x_min":10.890625,"x_max":820.75,"ha":849,"o":"m 372 0 l 461 0 l 461 435 l 820 1002 l 725 1002 l 424 517 l 123 1002 l 10 1002 l 372 433 l 372 0 m 469 1287 l 345 1088 l 405 1088 l 578 1287 l 469 1287 "},"b":{"x_min":88.46875,"x_max":694.171875,"ha":772,"o":"m 397 641 b 605 358 552 641 605 491 b 409 55 605 229 566 55 b 176 362 231 55 176 204 b 397 641 176 504 238 641 m 176 102 l 179 108 b 417 -20 235 25 318 -20 b 694 351 616 -20 694 176 b 413 717 694 531 616 717 b 179 591 322 717 227 673 l 176 594 l 176 1002 l 95 1002 l 95 156 b 88 0 95 102 91 47 l 172 0 l 176 102 "},"q":{"x_min":62.609375,"x_max":668.3125,"ha":772,"o":"m 579 365 b 347 55 579 206 525 55 b 151 361 190 55 151 231 b 359 641 151 494 204 641 b 579 365 518 641 579 506 m 579 594 l 579 590 l 577 590 l 577 594 b 343 717 529 673 434 717 b 62 351 140 717 62 531 b 338 -20 62 176 140 -20 b 577 108 438 -20 521 25 l 579 108 l 579 -265 l 661 -265 l 661 540 b 668 697 661 594 665 649 l 583 697 l 579 594 "},"Ω":{"x_min":70.78125,"x_max":913.3125,"ha":1006,"o":"m 277 72 l 70 72 l 70 0 l 390 0 l 390 54 b 175 502 283 123 175 294 b 495 908 175 726 300 908 b 807 505 702 908 807 690 b 593 54 807 283 702 126 l 593 0 l 913 0 l 913 72 l 703 72 l 703 76 b 894 520 797 155 894 313 b 496 981 894 767 736 981 b 89 515 268 981 89 792 b 277 76 89 317 178 165 l 277 72 "},"Ö":{"x_min":91.1875,"x_max":967.75,"ha":1081,"o":"m 186 501 b 529 939 186 720 284 939 b 872 501 774 939 872 720 b 529 62 872 281 774 62 b 186 501 284 62 186 281 m 967 501 b 529 1023 967 813 811 1023 b 91 501 247 1023 91 813 b 529 -20 91 188 247 -20 b 967 501 811 -20 967 188 m 698 1164 l 698 1287 l 597 1287 l 597 1164 l 698 1164 m 461 1164 l 461 1287 l 360 1287 l 360 1164 l 461 1164 "},"ﬂ":{"x_min":32.671875,"x_max":639.71875,"ha":772,"o":"m 251 0 l 251 620 l 406 620 l 406 697 l 251 697 l 251 785 b 362 942 247 885 250 942 b 412 937 378 942 396 939 l 412 1003 b 334 1019 387 1009 360 1019 b 170 845 217 1019 170 964 l 170 697 l 32 697 l 32 620 l 170 620 l 170 0 l 251 0 m 639 1002 l 558 1002 l 558 0 l 639 0 l 639 1002 "},"z":{"x_min":53.90625,"x_max":549.34375,"ha":617,"o":"m 53 0 l 549 0 l 549 76 l 153 76 l 549 620 l 549 697 l 53 697 l 53 620 l 452 620 l 53 76 l 53 0 "},"™":{"x_min":39.46875,"x_max":1173.28125,"ha":1306,"o":"m 475 1002 l 39 1002 l 39 946 l 220 946 l 220 417 l 295 417 l 295 946 l 475 946 l 475 1002 m 711 1002 l 577 1002 l 577 417 l 651 417 l 651 941 l 654 941 l 852 417 l 898 417 l 1095 941 l 1098 941 l 1098 417 l 1173 417 l 1173 1002 l 1038 1002 l 877 570 l 875 570 l 711 1002 "},"ã":{"x_min":48.84375,"x_max":583.75,"ha":694,"o":"m 137 194 b 495 350 137 368 379 346 b 291 55 503 205 469 55 b 137 194 208 55 137 99 m 495 427 b 186 395 395 421 277 435 b 48 194 104 360 48 288 b 276 -21 48 57 149 -21 b 489 92 368 -21 459 34 l 493 102 l 496 102 l 499 0 l 583 0 b 576 156 581 46 575 102 l 576 486 b 334 717 579 646 485 717 b 78 520 204 717 99 663 l 165 520 b 333 641 176 614 247 641 b 495 491 429 641 487 605 l 495 427 m 476 964 b 408 918 465 935 438 918 b 355 931 397 918 375 925 b 300 946 334 938 312 945 b 153 835 221 959 169 910 l 205 835 b 269 875 212 863 242 875 b 342 861 297 875 322 868 b 404 846 364 853 385 846 b 527 964 473 846 512 902 l 476 964 "},"æ":{"x_min":48.09375,"x_max":1058.046875,"ha":1157,"o":"m 581 415 b 770 641 577 517 648 641 b 969 415 915 641 969 537 l 581 415 m 165 520 b 332 641 176 615 246 641 b 493 491 429 641 485 605 l 493 415 b 185 384 395 410 276 424 b 48 194 107 349 48 288 b 275 -20 48 58 148 -20 b 540 144 397 -12 501 36 b 768 -20 581 40 670 -12 b 1049 222 905 -20 1007 55 l 964 222 b 766 55 943 126 863 55 b 581 338 623 55 578 198 l 1058 338 b 759 717 1058 547 975 717 b 550 572 681 713 592 670 l 547 572 b 333 717 527 666 425 710 b 78 520 203 717 98 663 l 165 520 m 493 337 b 293 55 497 194 467 55 b 136 174 225 55 136 93 b 388 338 136 333 263 338 l 493 337 "},"®":{"x_min":32.78125,"x_max":1056.34375,"ha":1111,"o":"m 545 -20 b 1056 502 827 -20 1056 213 b 545 1023 1056 788 827 1023 b 32 502 262 1023 32 788 b 545 -20 32 213 262 -20 m 545 62 b 114 502 295 62 114 245 b 545 939 114 756 295 939 b 974 502 795 939 974 756 b 545 62 974 245 795 62 m 428 472 l 554 472 l 718 206 l 803 206 l 628 472 b 809 638 731 480 809 523 b 605 803 809 745 758 803 l 354 803 l 354 206 l 428 206 l 428 472 m 428 541 l 428 734 l 589 734 b 728 640 660 734 728 723 b 532 541 728 527 613 541 l 428 541 "},"É":{"x_min":138.828125,"x_max":743.171875,"ha":849,"o":"m 743 0 l 743 83 l 227 83 l 227 476 l 703 476 l 703 559 l 227 559 l 227 919 l 722 919 l 722 1002 l 138 1002 l 138 0 l 743 0 m 469 1287 l 345 1088 l 405 1088 l 578 1287 l 469 1287 "},"~":{"x_min":109,"x_max":790,"ha":917,"o":"m 301 442 b 109 299 204 442 148 359 l 153 234 b 301 366 185 288 228 366 b 415 323 340 366 380 338 b 599 265 461 304 548 265 b 790 416 690 265 751 341 l 735 463 b 600 342 709 413 661 342 b 460 392 565 342 514 367 b 301 442 407 417 350 442 "},"³":{"x_min":28.578125,"x_max":439.640625,"ha":463,"o":"m 198 661 b 366 555 283 673 366 643 b 228 451 366 488 310 451 b 102 547 157 451 103 491 l 28 547 b 230 384 31 437 122 384 b 439 548 332 384 439 440 b 304 693 439 626 382 679 l 304 695 b 430 826 372 709 430 755 b 224 982 430 937 328 982 b 36 829 129 982 36 926 l 110 829 b 232 915 118 879 155 915 b 356 829 304 915 356 879 b 198 727 356 747 277 719 l 198 661 "},"¡":{"x_min":209.609375,"x_max":321.21875,"ha":540,"o":"m 210 752 l 210 633 l 319 633 l 319 752 l 210 752 m 227 515 l 209 -249 l 321 -249 l 303 515 l 227 515 "},"[":{"x_min":115.6875,"x_max":302.171875,"ha":386,"o":"m 302 -133 l 302 -63 l 204 -63 l 204 933 l 302 933 l 302 1002 l 115 1002 l 115 -133 l 302 -133 "},"L":{"x_min":136.109375,"x_max":718.671875,"ha":772,"o":"m 718 0 l 718 83 l 224 83 l 224 1002 l 136 1002 l 136 0 l 718 0 "}," ":{"x_min":0,"x_max":0,"ha":386},"∑":{"x_min":31.140625,"x_max":719.921875,"ha":767,"o":"m 719 -133 l 719 -49 l 142 -49 l 142 -45 l 504 426 l 168 884 l 168 890 l 699 890 l 699 964 l 47 964 l 47 903 l 405 413 l 31 -73 l 31 -133 l 719 -133 "},"%":{"x_min":160.609375,"x_max":1200.5,"ha":1389,"o":"m 377 919 b 518 719 483 919 518 809 b 377 519 518 628 483 519 b 235 719 270 519 235 628 b 377 919 235 809 270 919 m 888 981 l 357 0 l 436 0 l 967 981 l 888 981 m 377 981 b 160 719 239 981 160 856 b 377 456 160 581 239 456 b 593 719 514 456 593 581 b 377 981 593 856 514 981 m 984 504 b 767 241 846 504 767 379 b 984 -20 767 104 846 -20 b 1200 241 1121 -20 1200 104 b 984 504 1200 379 1121 504 m 984 441 b 1125 241 1090 441 1125 331 b 984 41 1125 151 1090 41 b 842 241 877 41 842 151 b 984 441 842 331 877 441 "},"P":{"x_min":136.109375,"x_max":784,"ha":849,"o":"m 224 919 l 439 919 b 688 719 571 919 688 876 b 439 519 688 562 571 519 l 224 519 l 224 919 m 224 0 l 224 435 l 382 435 b 784 719 571 431 784 480 b 382 1002 784 958 571 1006 l 136 1002 l 136 0 l 224 0 "},"∏":{"x_min":35.390625,"x_max":907.859375,"ha":964,"o":"m 907 885 l 907 964 l 35 964 l 35 885 l 186 885 l 186 -133 l 270 -133 l 270 885 l 672 885 l 672 -133 l 756 -133 l 756 885 l 907 885 "},"À":{"x_min":12.078125,"x_max":897,"ha":926,"o":"m 235 354 l 451 919 l 664 354 l 235 354 m 103 0 l 206 270 l 695 270 l 800 0 l 897 0 l 504 1002 l 401 1002 l 12 0 l 103 0 m 292 1287 l 465 1088 l 525 1088 l 401 1287 l 292 1287 "},"_":{"x_min":0,"x_max":680.5625,"ha":694,"o":"m 680 -172 l 680 -94 l 0 -94 l 0 -172 l 680 -172 "},"ñ":{"x_min":102.078125,"x_max":647.890625,"ha":772,"o":"m 190 401 b 386 641 190 526 251 641 b 566 449 498 641 566 570 l 566 0 l 647 0 l 647 435 b 406 717 647 516 630 717 b 193 591 318 717 240 677 l 190 594 l 186 697 l 102 697 b 108 540 104 649 108 594 l 108 0 l 190 0 l 190 401 m 514 964 b 446 919 503 935 476 919 b 393 931 435 919 413 926 b 338 946 372 938 351 945 b 191 835 259 959 208 910 l 243 835 b 307 876 250 863 280 876 b 381 862 336 876 360 869 b 442 846 402 853 423 846 b 566 964 511 846 551 902 l 514 964 "},"+":{"x_min":108.890625,"x_max":789.453125,"ha":917,"o":"m 408 390 l 108 390 l 108 306 l 408 306 l 408 0 l 490 0 l 490 306 l 789 306 l 789 390 l 490 390 l 490 697 l 408 697 l 408 390 "},"‚":{"x_min":110,"x_max":278.78125,"ha":386,"o":"m 168 112 l 110 -172 l 180 -172 l 278 112 l 168 112 "},"½":{"x_min":144.28125,"x_max":1068.46875,"ha":1158,"o":"m 887 981 l 815 981 l 247 0 l 322 0 l 887 981 m 352 392 l 352 960 l 285 960 b 144 870 246 923 197 890 l 144 808 b 283 894 194 830 242 858 l 283 392 l 352 392 m 1068 0 l 1068 66 l 793 66 b 1060 440 856 136 1060 305 b 877 588 1060 540 975 588 b 690 423 771 588 690 526 l 755 423 b 876 522 755 474 803 522 b 986 435 941 522 986 487 b 684 56 986 333 763 123 l 684 0 l 1068 0 "},"Æ":{"x_min":11,"x_max":1271.140625,"ha":1389,"o":"m 579 1002 l 11 0 l 108 0 l 264 272 l 740 272 l 786 0 l 1271 0 l 1271 83 l 864 83 l 800 476 l 1234 476 l 1234 559 l 787 559 l 729 919 l 1258 919 l 1258 1002 l 579 1002 m 632 919 l 635 919 l 729 355 l 310 355 l 632 919 "},"Ë":{"x_min":138.828125,"x_max":743.171875,"ha":849,"o":"m 743 0 l 743 83 l 227 83 l 227 476 l 703 476 l 703 559 l 227 559 l 227 919 l 722 919 l 722 1002 l 138 1002 l 138 0 l 743 0 m 585 1164 l 585 1287 l 484 1287 l 484 1164 l 585 1164 m 348 1164 l 348 1287 l 247 1287 l 247 1164 l 348 1164 "},"'":{"x_min":153.8125,"x_max":224.578125,"ha":386,"o":"m 153 688 l 224 688 l 224 1002 l 153 1002 l 153 688 "},"Š":{"x_min":78.296875,"x_max":752.046875,"ha":849,"o":"m 752 263 b 196 765 752 609 196 480 b 425 940 196 887 323 940 b 639 784 526 940 636 908 l 734 784 b 414 1023 712 977 543 1023 b 101 752 259 1023 101 927 b 502 430 101 536 343 484 b 656 255 586 402 656 355 b 419 62 656 127 530 62 b 173 261 287 62 176 107 l 78 261 b 370 -20 82 95 214 -20 b 752 263 568 -20 752 45 m 600 1287 l 538 1287 l 415 1140 l 294 1287 l 230 1287 l 365 1085 l 464 1085 l 600 1287 "},"ª":{"x_min":30.984375,"x_max":380.796875,"ha":417,"o":"m 315 796 l 318 796 b 188 635 320 716 297 635 b 99 709 134 635 99 652 b 315 794 99 805 246 791 l 315 796 m 315 849 b 120 830 256 845 180 853 b 30 709 67 809 30 766 b 179 580 30 627 97 580 b 311 648 239 580 292 613 l 314 648 l 318 592 l 380 592 b 375 656 379 613 375 634 l 375 885 b 217 1023 376 981 315 1023 b 51 905 133 1023 63 991 l 114 905 b 216 967 122 962 167 967 b 315 887 278 967 310 956 l 315 849 "},"Œ":{"x_min":83.03125,"x_max":1287.609375,"ha":1389,"o":"m 178 501 b 494 939 178 720 276 939 b 752 658 661 939 754 860 l 752 306 b 494 62 752 152 653 68 b 178 501 276 62 178 281 m 755 0 l 1287 0 l 1287 83 l 843 83 l 843 476 l 1248 476 l 1248 559 l 843 559 l 843 919 l 1267 919 l 1267 1002 l 755 1002 l 755 914 b 494 1023 673 999 588 1023 b 83 501 239 1023 83 813 b 494 -20 83 188 239 -20 b 749 95 585 -20 691 15 l 755 95 l 755 0 "},"˛":{"x_min":27.21875,"x_max":334.828125,"ha":386,"o":"m 334 -174 b 196 -202 288 -193 259 -202 b 102 -123 159 -202 102 -173 b 259 -2 102 -81 174 -36 l 259 0 l 187 0 b 27 -136 122 -16 27 -69 b 168 -265 27 -230 104 -265 b 334 -234 215 -265 298 -249 l 334 -174 "},"ð":{"x_min":59.453125,"x_max":696.453125,"ha":772,"o":"m 210 966 b 339 918 278 947 296 940 l 226 847 l 266 807 l 392 886 b 612 503 545 790 601 626 l 609 500 b 367 679 586 558 524 679 b 59 328 160 679 59 503 b 377 -21 59 154 160 -21 b 696 371 584 -21 696 126 b 458 928 696 732 544 868 l 573 1001 l 533 1040 l 406 960 b 233 1022 345 991 316 1003 l 210 966 m 147 328 b 377 607 147 451 213 607 b 607 328 542 607 607 451 b 377 50 607 206 542 50 b 147 328 213 50 147 206 "},"T":{"x_min":19.0625,"x_max":737.71875,"ha":772,"o":"m 337 0 l 424 0 l 426 919 l 737 919 l 737 1002 l 19 1002 l 19 919 l 336 919 l 337 0 "},"š":{"x_min":62.484375,"x_max":607.4375,"ha":694,"o":"m 85 522 b 302 335 85 393 194 361 b 518 193 411 310 518 293 b 340 55 518 96 427 55 b 150 189 247 55 157 85 l 62 189 b 319 -21 65 35 201 -21 b 607 206 464 -21 607 49 b 491 368 607 281 562 343 b 174 528 306 435 174 425 b 328 641 174 610 251 641 b 497 524 412 641 488 611 l 585 524 b 336 717 574 671 465 717 b 85 522 216 717 85 667 m 525 981 l 463 981 l 340 834 l 219 981 l 155 981 l 289 779 l 389 779 l 525 981 "},"℮":{"x_min":45.640625,"x_max":1137.25,"ha":1208,"o":"m 1137 466 l 1137 480 b 590 981 1137 756 892 981 b 45 480 289 981 45 756 b 590 -19 45 204 289 -19 b 1021 173 765 -19 924 56 l 943 173 b 591 8 858 73 733 8 b 257 156 460 8 343 66 b 245 187 249 165 245 176 l 245 460 b 252 466 245 465 248 466 l 1137 466 m 935 502 b 930 492 935 498 934 492 l 252 492 b 245 502 248 492 245 498 l 245 770 b 259 803 245 783 249 795 b 591 951 345 892 462 951 b 923 809 720 951 837 895 b 935 776 931 799 935 788 l 935 502 "},"Þ":{"x_min":136.109375,"x_max":784,"ha":849,"o":"m 224 703 l 439 703 b 688 504 571 703 688 660 b 439 304 688 347 571 304 l 224 304 l 224 703 m 136 0 l 224 0 l 224 220 l 419 220 b 784 504 601 220 784 265 b 419 787 784 742 601 787 l 224 787 l 224 1002 l 136 1002 l 136 0 "},"j":{"x_min":4.078125,"x_max":198.71875,"ha":308,"o":"m 4 -266 b 191 -30 187 -272 191 -209 l 191 697 l 110 697 l 110 23 b 4 -190 110 -158 123 -191 l 4 -266 m 198 1002 l 103 1002 l 103 898 l 198 898 l 198 1002 "},"1":{"x_min":157.890625,"x_max":458.6875,"ha":772,"o":"m 157 719 b 370 863 234 756 307 802 l 370 0 l 458 0 l 458 960 l 374 960 b 157 809 313 898 238 842 l 157 719 "},"›":{"x_min":86,"x_max":300,"ha":386,"o":"m 155 99 l 300 370 l 155 641 l 87 641 l 212 370 l 86 99 l 155 99 "},"ı":{"x_min":110.25,"x_max":191.921875,"ha":308,"o":"m 191 0 l 191 697 l 110 697 l 110 0 l 191 0 "},"ℓ":{"x_min":40.828125,"x_max":617.953125,"ha":664,"o":"m 574 193 b 386 55 541 129 475 55 b 230 284 306 55 231 119 l 230 327 b 514 841 400 495 514 665 b 349 1060 514 963 461 1060 b 149 733 254 1060 149 987 l 149 348 b 40 252 117 315 80 286 l 69 199 b 149 266 96 222 125 245 l 149 248 b 370 -13 155 109 216 -13 b 617 155 476 -13 560 44 l 574 193 m 230 742 b 349 994 230 930 295 994 b 451 838 424 994 451 930 b 230 416 451 692 353 552 l 230 742 "},"ä":{"x_min":48.84375,"x_max":583.75,"ha":694,"o":"m 137 194 b 495 350 137 368 379 346 b 291 55 503 205 469 55 b 137 194 208 55 137 99 m 495 427 b 186 395 395 421 277 435 b 48 194 104 360 48 288 b 276 -21 48 57 149 -21 b 489 92 368 -21 459 34 l 493 102 l 496 102 l 499 0 l 583 0 b 576 156 581 46 575 102 l 576 486 b 334 717 579 646 485 717 b 78 520 204 717 99 663 l 165 520 b 333 641 176 614 247 641 b 495 491 429 641 487 605 l 495 427 m 508 859 l 508 981 l 408 981 l 408 859 l 508 859 m 272 859 l 272 981 l 171 981 l 171 859 l 272 859 "},"<":{"x_min":109.0625,"x_max":789.625,"ha":917,"o":"m 216 349 l 789 607 l 789 697 l 109 386 l 109 312 l 789 -14 l 789 75 l 216 349 "},"£":{"x_min":62.609375,"x_max":717.3125,"ha":772,"o":"m 687 0 l 687 83 l 251 83 l 251 516 l 472 516 l 472 599 l 251 599 l 251 658 b 451 898 251 792 310 898 b 622 783 547 898 619 855 l 717 783 b 462 981 714 910 600 981 b 164 599 200 981 155 802 l 62 599 l 62 516 l 163 516 l 163 83 l 81 83 l 81 0 l 687 0 "},"¹":{"x_min":100.71875,"x_max":308.96875,"ha":463,"o":"m 308 392 l 308 960 l 242 960 b 100 870 202 923 153 890 l 100 808 b 239 894 151 830 198 858 l 239 392 l 308 392 "},"t":{"x_min":31.3125,"x_max":413.78125,"ha":463,"o":"m 167 186 b 330 -20 167 91 157 -20 b 413 -8 357 -20 387 -15 l 413 63 b 343 55 392 56 367 55 b 249 154 280 55 247 90 l 249 620 l 404 620 l 404 697 l 249 697 l 249 881 l 167 845 l 167 697 l 31 697 l 31 620 l 167 620 l 167 186 "},"¬":{"x_min":108.890625,"x_max":789.453125,"ha":917,"o":"m 707 155 l 789 155 l 789 524 l 108 524 l 108 441 l 707 441 l 707 155 "},"ù":{"x_min":108.890625,"x_max":654.703125,"ha":772,"o":"m 566 295 b 370 55 566 170 504 55 b 190 247 258 55 190 126 l 190 697 l 108 697 l 108 261 b 349 -20 108 180 126 -20 b 563 105 438 -20 515 19 l 566 102 l 570 0 l 654 0 b 647 156 651 47 647 102 l 647 697 l 566 697 l 566 295 m 216 981 l 389 783 l 449 783 l 325 981 l 216 981 "},"W":{"x_min":14,"x_max":1349,"ha":1389,"o":"m 676 909 l 679 909 l 969 0 l 1090 0 l 1349 1002 l 1263 1002 l 1036 90 l 1033 90 l 733 1002 l 626 1002 l 339 90 l 336 90 l 107 1002 l 14 1002 l 269 0 l 395 0 l 676 909 "},"ï":{"x_min":-17.6875,"x_max":319.859375,"ha":308,"o":"m 191 0 l 191 697 l 110 697 l 110 0 l 191 0 m 319 859 l 319 981 l 219 981 l 219 859 l 319 859 m 83 859 l 83 981 l -17 981 l -17 859 l 83 859 "},">":{"x_min":109.375,"x_max":789.9375,"ha":917,"o":"m 682 347 l 109 89 l 109 1 l 789 310 l 789 383 l 109 710 l 109 621 l 682 347 "},"v":{"x_min":19,"x_max":661,"ha":694,"o":"m 19 697 l 297 0 l 390 0 l 661 697 l 571 697 l 344 115 l 108 697 l 19 697 "},"û":{"x_min":108.890625,"x_max":654.703125,"ha":772,"o":"m 566 295 b 370 55 566 170 504 55 b 190 246 258 55 190 125 l 190 696 l 108 696 l 108 260 b 349 -21 108 180 126 -21 b 563 105 438 -21 515 18 l 566 102 l 570 0 l 654 0 b 647 156 651 46 647 102 l 647 696 l 566 696 l 566 295 m 193 779 l 255 779 l 378 927 l 499 779 l 563 779 l 428 981 l 329 981 l 193 779 "},"Ò":{"x_min":91.1875,"x_max":967.75,"ha":1081,"o":"m 186 501 b 529 939 186 720 284 939 b 872 501 774 939 872 720 b 529 62 872 281 774 62 b 186 501 284 62 186 281 m 967 501 b 529 1023 967 813 811 1023 b 91 501 247 1023 91 813 b 529 -20 91 188 247 -20 b 967 501 811 -20 967 188 m 367 1287 l 540 1088 l 600 1088 l 476 1287 l 367 1287 "},"&":{"x_min":73.6875,"x_max":977.46875,"ha":1003,"o":"m 682 191 b 424 62 608 112 535 62 b 168 294 292 62 168 148 b 374 529 168 381 309 485 l 682 191 m 390 640 b 284 840 345 690 284 767 b 408 939 284 912 344 939 b 528 840 468 939 528 908 b 390 640 528 752 446 695 m 313 585 b 73 274 203 510 73 427 b 433 -20 73 91 234 -20 b 733 133 559 -20 652 34 l 850 0 l 977 0 l 791 206 b 889 640 865 336 875 494 l 793 640 b 731 269 799 527 776 373 l 443 581 b 623 845 529 648 623 726 b 404 1023 623 969 510 1023 b 189 841 296 1023 189 964 b 318 591 189 741 258 662 b 313 585 317 590 314 588 "},"˝":{"x_min":170,"x_max":588,"ha":772,"o":"m 170 785 l 233 785 l 409 981 l 299 981 l 170 785 m 348 785 l 412 785 l 588 981 l 477 981 l 348 785 "},"Ð":{"x_min":31.3125,"x_max":895.609375,"ha":1003,"o":"m 212 919 l 351 919 b 800 501 630 927 800 796 b 411 83 800 248 687 83 l 212 83 l 212 520 l 506 520 l 506 583 l 212 583 l 212 919 m 123 0 l 389 0 b 895 501 711 0 895 169 b 389 1002 895 833 711 1002 l 123 1002 l 123 583 l 31 583 l 31 520 l 123 520 l 123 0 "},"I":{"x_min":145.640625,"x_max":234.109375,"ha":386,"o":"m 234 0 l 234 1006 l 145 1006 l 145 0 l 234 0 "},"ˉ":{"x_min":23.140625,"x_max":356.609375,"ha":386,"o":"m 356 898 l 356 981 l 23 981 l 23 898 l 356 898 "},"G":{"x_min":86.28125,"x_max":858.046875,"ha":1003,"o":"m 523 510 l 523 427 l 769 427 l 769 104 b 551 62 700 83 625 62 b 181 501 286 62 181 245 b 505 939 181 709 270 939 b 750 755 622 939 732 883 l 851 755 b 505 1023 836 933 668 1023 b 86 501 221 1023 86 759 b 505 -20 86 193 237 -20 b 858 41 632 -20 739 -5 l 858 510 l 523 510 "},"`":{"x_min":27,"x_max":260,"ha":386,"o":"m 27 981 l 200 783 l 260 783 l 136 981 l 27 981 "},"·":{"x_min":134.75,"x_max":243.640625,"ha":386,"o":"m 243 408 l 134 408 l 134 288 l 243 288 l 243 408 "},"r":{"x_min":102.078125,"x_max":428.75,"ha":463,"o":"m 190 419 b 378 641 193 552 257 641 b 428 635 394 641 412 637 l 428 716 b 347 717 401 717 374 719 b 193 594 279 715 217 665 l 190 594 l 186 697 l 102 697 b 108 540 104 649 110 594 l 108 0 l 190 0 l 190 419 "},"¿":{"x_min":101.046875,"x_max":537.96875,"ha":694,"o":"m 361 522 l 361 424 b 241 236 367 344 337 338 b 101 -18 165 161 101 98 b 388 -266 101 -187 234 -266 b 537 -247 438 -266 488 -262 l 537 -162 b 410 -183 497 -174 453 -183 b 189 -15 298 -183 189 -145 b 442 372 189 159 438 240 l 442 522 l 361 522 m 347 752 l 347 633 l 456 633 l 456 752 l 347 752 "},"ý":{"x_min":11,"x_max":658,"ha":694,"o":"m 11 697 l 294 0 l 190 -266 l 280 -266 l 658 697 l 569 697 l 340 113 l 110 697 l 11 697 m 393 981 l 269 783 l 329 783 l 502 981 l 393 981 "},"x":{"x_min":23,"x_max":657,"ha":694,"o":"m 344 416 l 144 697 l 35 697 l 286 356 l 25 2 l 23 0 l 115 0 l 330 302 l 549 0 l 657 0 l 390 359 l 635 697 l 549 697 l 344 416 "},"è":{"x_min":67.453125,"x_max":684.046875,"ha":772,"o":"m 684 329 b 372 717 684 547 601 717 b 67 348 169 717 67 537 b 366 -20 67 158 162 -20 b 675 222 531 -20 633 55 l 590 222 b 392 55 569 126 489 55 b 155 329 225 55 158 180 l 684 329 m 158 405 b 373 641 169 527 240 641 b 595 405 515 641 586 540 l 158 405 m 215 981 l 388 783 l 448 783 l 324 981 l 215 981 "},"º":{"x_min":20.421875,"x_max":434.1875,"ha":464,"o":"m 88 802 b 227 967 88 878 130 967 b 366 802 322 967 366 878 b 227 635 366 724 322 635 b 88 802 130 635 88 724 m 227 1023 b 20 802 85 1023 20 912 b 227 580 20 691 85 580 b 434 802 368 580 434 691 b 227 1023 434 912 368 1023 "},"Ø":{"x_min":73.03125,"x_max":987.6875,"ha":1081,"o":"m 252 221 b 186 500 206 298 186 399 b 529 939 186 720 284 939 b 776 823 639 939 720 895 l 252 221 m 221 105 b 529 -21 296 23 399 -21 b 967 500 810 -21 967 188 b 872 853 967 643 934 764 l 987 988 l 950 1023 l 839 895 b 529 1023 765 975 661 1023 b 90 500 247 1023 90 813 b 187 146 90 356 123 234 l 73 16 l 112 -21 l 221 105 m 806 778 b 872 500 851 699 872 600 b 529 62 872 281 774 62 b 284 176 418 62 338 106 l 806 778 "},"∞":{"x_min":69.421875,"x_max":985.453125,"ha":1076,"o":"m 985 402 b 790 610 985 524 907 610 b 533 442 676 612 607 526 b 280 610 461 529 382 610 b 69 395 159 610 69 519 b 270 184 69 277 161 184 b 529 351 382 184 457 269 b 779 184 624 244 692 184 b 985 401 886 184 985 269 l 985 402 m 279 242 b 132 394 190 242 132 311 b 269 555 130 479 181 555 b 496 394 370 555 435 469 b 280 242 439 333 370 242 l 279 242 m 784 555 b 924 397 862 555 924 497 b 785 242 924 320 873 242 b 564 399 710 242 657 298 b 782 555 613 449 688 555 l 784 555 "},"μ":{"x_min":108.890625,"x_max":654.703125,"ha":772,"o":"m 566 295 b 370 55 566 170 504 55 b 190 246 258 55 190 126 l 190 696 l 108 696 l 108 -266 l 190 -266 l 190 13 b 349 -21 243 -7 296 -21 b 563 105 438 -21 515 19 l 566 102 l 570 0 l 654 0 b 647 156 651 46 647 102 l 647 696 l 566 696 l 566 295 "},"÷":{"x_min":108.890625,"x_max":789.453125,"ha":917,"o":"m 108 306 l 789 306 l 789 390 l 108 390 l 108 306 m 500 0 l 500 122 l 398 122 l 398 0 l 500 0 m 500 574 l 500 697 l 398 697 l 398 574 l 500 574 "},"h":{"x_min":108.890625,"x_max":647.890625,"ha":772,"o":"m 190 1002 l 108 1002 l 108 0 l 190 0 l 190 401 b 386 641 190 526 251 641 b 566 449 498 641 566 570 l 566 0 l 647 0 l 647 435 b 406 717 647 516 630 717 b 193 591 318 717 240 677 l 190 591 l 190 1002 "},".":{"x_min":134.75,"x_max":243.640625,"ha":386,"o":"m 243 0 l 243 119 l 134 119 l 134 0 l 243 0 "},";":{"x_min":106.171875,"x_max":274.9375,"ha":386,"o":"m 164 112 l 106 -172 l 176 -172 l 274 112 l 164 112 m 145 697 l 145 577 l 254 577 l 254 697 l 145 697 "},"f":{"x_min":29.9375,"x_max":409.6875,"ha":463,"o":"m 249 0 l 249 620 l 404 620 l 404 697 l 249 697 l 249 785 b 359 942 245 885 247 942 b 409 937 375 942 393 939 l 409 1003 b 332 1019 385 1009 357 1019 b 167 845 215 1019 167 964 l 167 697 l 29 697 l 29 620 l 167 620 l 167 0 l 249 0 "},"“":{"x_min":161.90625,"x_max":581,"ha":772,"o":"m 522 717 l 581 1002 l 510 1002 l 412 717 l 522 717 m 272 717 l 330 1002 l 259 1002 l 161 717 l 272 717 "},"A":{"x_min":12.078125,"x_max":897,"ha":926,"o":"m 235 354 l 451 919 l 664 354 l 235 354 m 103 0 l 206 270 l 695 270 l 800 0 l 897 0 l 504 1002 l 401 1002 l 12 0 l 103 0 "},"6":{"x_min":61.25,"x_max":695.53125,"ha":772,"o":"m 402 547 b 600 299 543 547 600 426 b 385 62 600 163 524 62 b 172 292 262 62 172 172 b 402 547 172 435 253 547 m 404 981 b 61 431 99 981 61 677 b 398 -20 61 201 136 -20 b 695 305 583 -20 695 122 b 406 623 695 488 593 623 b 159 466 296 623 201 572 l 156 466 b 408 898 156 647 182 898 b 588 735 504 898 583 835 l 683 735 b 404 981 680 902 558 981 "},"‘":{"x_min":99.21875,"x_max":268,"ha":386,"o":"m 209 717 l 268 1002 l 197 1002 l 99 717 l 209 717 "},"π":{"x_min":13.609375,"x_max":739.078125,"ha":783,"o":"m 729 641 l 739 716 l 202 716 b 13 681 102 716 47 702 l 28 623 b 185 641 57 634 95 641 b 83 0 178 448 136 145 l 167 0 b 270 641 219 127 262 455 l 530 641 l 530 194 b 553 0 530 76 541 20 l 637 0 b 616 204 627 36 616 84 l 616 641 l 729 641 "},"O":{"x_min":91.1875,"x_max":967.75,"ha":1081,"o":"m 186 501 b 529 939 186 720 284 939 b 872 501 774 939 872 720 b 529 62 872 281 774 62 b 186 501 284 62 186 281 m 967 501 b 529 1023 967 813 811 1023 b 91 501 247 1023 91 813 b 529 -20 91 188 247 -20 b 967 501 811 -20 967 188 "},"n":{"x_min":102.078125,"x_max":647.890625,"ha":772,"o":"m 190 401 b 386 641 190 526 251 641 b 566 449 498 641 566 570 l 566 0 l 647 0 l 647 435 b 406 717 647 516 630 717 b 193 591 318 717 240 677 l 190 594 l 186 697 l 102 697 b 108 540 104 649 108 594 l 108 0 l 190 0 l 190 401 "},"3":{"x_min":43.5625,"x_max":676.46875,"ha":772,"o":"m 306 456 b 581 267 435 476 581 422 b 352 62 581 130 477 62 b 138 254 243 62 140 134 l 43 254 b 353 -20 49 70 187 -20 b 676 256 511 -20 676 76 b 469 499 676 385 589 473 l 469 502 b 661 719 574 524 661 602 b 345 981 661 905 504 981 b 57 723 198 981 57 885 l 152 723 b 357 898 164 834 238 898 b 566 724 468 898 566 835 b 306 544 566 580 427 530 l 306 456 "},"9":{"x_min":61.25,"x_max":696.890625,"ha":772,"o":"m 363 898 b 585 673 492 898 585 805 b 357 445 585 540 488 445 b 156 660 234 445 156 534 b 363 898 156 794 223 898 m 63 236 b 338 -20 76 83 171 -20 b 696 506 639 -20 696 248 b 362 981 696 745 635 981 b 61 667 179 981 61 851 b 349 369 61 495 179 369 b 598 516 458 369 552 423 l 601 516 b 363 62 601 370 578 62 b 159 236 247 62 163 109 l 63 236 "},"l":{"x_min":110.25,"x_max":191.921875,"ha":308,"o":"m 191 1002 l 110 1002 l 110 0 l 191 0 l 191 1002 "},"¤":{"x_min":36.96875,"x_max":720.03125,"ha":772,"o":"m 43 152 l 114 78 l 174 138 b 371 68 234 95 296 68 b 582 138 449 68 521 92 l 642 78 l 713 152 l 654 210 b 720 409 696 274 720 331 b 654 626 720 494 701 558 l 713 686 l 642 759 l 582 700 b 383 768 521 743 458 768 b 174 700 307 768 235 747 l 114 759 l 43 686 l 102 626 b 36 416 55 559 36 498 b 102 210 36 337 58 275 l 43 152 m 375 166 b 132 416 245 166 129 281 b 383 670 129 561 242 673 b 624 420 516 673 624 552 b 375 166 624 278 511 166 "},"∂":{"x_min":59.890625,"x_max":664.21875,"ha":750,"o":"m 138 938 b 319 1005 175 969 235 1005 b 581 578 458 1005 581 838 b 579 515 581 560 581 531 l 578 515 b 347 653 556 558 476 653 b 59 302 196 653 59 517 b 315 -15 59 144 141 -15 b 664 555 548 -15 664 237 b 328 1077 664 912 499 1077 b 106 1001 220 1077 151 1038 l 138 938 m 322 58 b 144 304 215 58 144 161 b 359 581 144 458 242 581 b 567 422 469 581 547 487 b 323 58 548 229 460 58 l 322 58 "},"4":{"x_min":30.140625,"x_max":712.0625,"ha":772,"o":"m 472 0 l 560 0 l 560 223 l 712 223 l 712 298 l 560 298 l 560 960 l 443 960 l 30 311 l 30 223 l 472 223 l 472 0 m 472 298 l 105 298 l 469 870 l 472 870 l 472 298 "},"p":{"x_min":88.46875,"x_max":694.171875,"ha":772,"o":"m 176 365 b 397 641 176 506 238 641 b 605 361 552 641 605 494 b 409 55 605 231 566 55 b 176 365 231 55 176 206 m 176 108 l 179 108 b 417 -20 235 25 318 -20 b 694 351 616 -20 694 176 b 413 717 694 531 616 717 b 179 591 322 717 227 673 l 176 594 l 172 697 l 88 697 b 95 540 91 649 96 594 l 95 -266 l 176 -266 l 176 108 "},"‡":{"x_min":103.4375,"x_max":653.328125,"ha":772,"o":"m 337 676 l 337 322 l 103 322 l 103 245 l 337 245 l 337 0 l 419 0 l 419 245 l 653 245 l 653 322 l 419 322 l 419 676 l 653 676 l 653 752 l 419 752 l 419 1002 l 337 1002 l 337 752 l 103 752 l 103 676 l 337 676 "},"à":{"x_min":48.84375,"x_max":583.75,"ha":694,"o":"m 137 194 b 495 350 137 368 379 346 b 291 55 503 205 469 55 b 137 194 208 55 137 99 m 495 427 b 186 395 395 421 277 435 b 48 194 104 360 48 288 b 276 -21 48 57 149 -21 b 489 92 368 -21 459 34 l 493 102 l 496 102 l 499 0 l 583 0 b 576 156 581 46 575 102 l 576 486 b 334 717 579 646 485 717 b 78 520 204 717 99 663 l 165 520 b 333 641 176 614 247 641 b 495 491 429 641 487 605 l 495 427 m 178 981 l 351 782 l 410 782 l 287 981 l 178 981 "},"Ü":{"x_min":132.03125,"x_max":850.703125,"ha":1003,"o":"m 132 1002 l 132 352 b 491 -20 134 137 253 -20 b 850 352 729 -20 847 137 l 850 1002 l 762 1002 l 762 354 b 491 62 755 172 653 62 b 220 354 329 62 227 172 l 220 1002 l 132 1002 m 660 1164 l 660 1287 l 559 1287 l 559 1164 l 660 1164 m 423 1164 l 423 1287 l 322 1287 l 322 1164 l 423 1164 "},"ó":{"x_min":59.890625,"x_max":696.890625,"ha":772,"o":"m 608 348 b 378 55 608 219 543 55 b 148 348 213 55 148 219 b 378 641 148 477 213 641 b 608 348 543 641 608 477 m 378 717 b 59 348 160 717 59 531 b 378 -20 59 165 160 -20 b 696 348 596 -20 696 165 b 378 717 696 531 596 717 m 431 981 l 307 783 l 367 783 l 540 981 l 431 981 "},"√":{"x_min":46,"x_max":769,"ha":786,"o":"m 769 1145 l 703 1145 l 444 -8 b 427 -104 439 -40 431 -78 l 425 -103 b 402 -7 420 -76 410 -39 l 221 524 l 46 456 l 65 400 l 167 439 l 389 -210 l 466 -210 l 769 1145 "}}}
